<?xml version="1.0" encoding="utf-8"?>
<!-- Generator: Adobe Illustrator 19.0.0, SVG Export Plug-In . SVG Version: 6.00 Build 0)  -->
<svg version="1.1" id="Layer_1" xmlns="http://www.w3.org/2000/svg" xmlns:xlink="http://www.w3.org/1999/xlink" x="0px" y="0px" width="82.7px" height="40.5px" viewBox="0 0 82.7 40.5" style="enable-background:new 0 0 82.7 40.5;" xml:space="preserve">
    <style type="text/css">
    .st0 {
        fill: #FAFAFA;
    }
    </style>
    <g id="XMLID_2_">
        <path id="XMLID_3_" class="st0" d="M12.2,19.7c-0.8,1-1.7,1.9-2.8,2.6c-0.7,0.5-2.5,1.5-3.2,0.4c-0.5-0.9,0.6-2.5,1-3.2
        c0.1-0.2,1.4-2.8,1-2.8c-1.4,0.7-2.8,2.2-3.6,3.5c-0.3,0.5-0.7,1.8-1.2,2.1c-0.9,0.3-0.4-0.9-0.1-1.3c0.7-0.9,1.3-2,1.6-3.1
        c0.4-1.4-1.1,0.1-1.4,0.5c-0.9,0.9-1.7,1.9-2.3,2.9c-0.1,0.2-0.5,1-0.8,1c-0.4,0-0.4-0.8-0.2-1c1.1-1.7,2.1-3.5,3.1-5.3
        C3.5,15.7,4,15.9,4,16.4c-0.4,1.1-1.1,2.1-1.6,3.1c0.8-0.9,1.7-2.2,2.9-2.7c1.5-0.6,0.3,1.7,0.1,2.2c0,0.1,0,0.1,0.1,0
        c1-1.2,2.4-2.4,3.8-3.1c0.5,0,0.5,0.5,0.3,0.8c-0.4,1-1,1.9-1.5,2.9c-0.3,0.6-1.3,2.1-0.9,2.9c0.7,1.8,4.3-2.2,4.9-2.9
        c0.1-0.1,0.1-0.2,0.2-0.1C12.3,19.5,12.3,19.6,12.2,19.7C11.9,20.1,12.3,19.6,12.2,19.7z" />
        <path id="XMLID_5_" class="st0" d="M18.4,18.5c0,1.2-0.9,2.4-1.8,3.2c-2.7,2.6-5.7,4.8-8.5,7.3c-1.5,1.3-2.5,3.1-4,4.4
        c-0.4,0.4-0.5-0.9-0.4-1.1c1.2-1.6,3-2.6,4-4.4c2-3.5,3.7-7.1,5.4-10.8c0.5-1.3-1.3-0.2-1.3-0.6c0-0.1,0.1-0.1,0.1-0.2
        c0.7-0.1,1.3-0.3,1.9-0.5c0.5-0.2,1.2-0.3,0.8,0.5c-1.2,2.1-2.2,4.4-3.4,6.5c-1.1,2-2.4,3.9-3.6,5.9c3.2-2.8,7.1-5.1,9.5-8.7
        c0.4-0.6,1.1-1.9,0.5-2.6c-0.1-0.1-0.1-0.1,0-0.2c0.1,0,0.1,0,0.2,0.1C18.4,17.6,18.4,18.2,18.4,18.5z M16.6,11.8
        c0,0.6-1.2,1.6-1.4,0.7C15.1,11.8,16.6,11,16.6,11.8z" />
        <path id="XMLID_8_" class="st0" d="M24.8,18.8c-1,1.2-2.2,2.3-3.6,3c-0.9,0.5-3,1.4-3.8,0.3c-0.8-1,0.3-3,0.9-3.9
        c0.6-0.9,2.5-3.1,3.9-2.5c1.4,0.6-0.9,2.4-1.5,2.6c-0.4,0.1-0.7,0.2-1.1,0.3c-0.5,0.1-0.6,0-0.8,0.3c-0.3,0.4-0.4,1.4-0.4,1.9
        c0.1,1.5,1.7,1.2,2.7,0.7c1.4-0.6,2.6-1.7,3.5-2.9C24.7,18.6,24.8,18.6,24.8,18.8C24.5,19.2,24.8,18.7,24.8,18.8z M21.7,16.4
        c0-0.9-1.2-0.1-1.4,0.2c-0.5,0.5-0.9,1.2-1.2,1.8C20.2,19,21.7,17.5,21.7,16.4z" />
        <path id="XMLID_11_" class="st0" d="M30.4,18.4c-1.2,1.6-3.9,4.4-6.2,3.9c-2.3-0.5,0.8-4.8,1.6-5.8c0.3-0.5,1.6-0.7,1-0.1
        c-0.5,0.8-3.2,4.6-1.9,5.4c0.8,0.5,2.3-0.6,2.9-1.1c0.9-0.7,1.8-1.6,2.5-2.5c0-0.1,0.1-0.1,0.2-0.1C30.4,18.2,30.4,18.3,30.4,18.4
        C29.9,19,30.4,18.3,30.4,18.4z M29,11.7c0,0.6-1.2,1.6-1.4,0.7C27.5,11.7,29,10.8,29,11.7z" />
        <path id="XMLID_14_" class="st0" d="M36.1,14.3c0,0.2-0.1,0.4-0.2,0.5c-1.7,3.2-3.5,6.4-5.4,9.6c-1.8,3-3.6,6.3-5.8,9.1
        c-2.2,2.7-5.3,4.6-8.8,4.7c-1.5,0-3.1-0.2-4.1-1.4c-1-1.1-1.3-3.1-0.7-4.5c0,0,0.1-0.1,0.1-0.1c0,0.1,0.1,0.1,0.1,0.2
        c-1.3,4.5,4.5,5.8,7.7,4.9c3.8-1,6.4-4.6,8.1-7.9c1.9-3.5,3.8-7.1,5.7-10.6C32,19.8,31.2,21,30.1,22c-0.4,0.3-1.2,1-1.7,0.5
        c-0.4-0.3-0.1-1,0-1.4c0.7-2,3.3-6.1,5.9-5.4c0.3-0.6,0.7-1.4,1.1-1.8C35.8,13.4,36.1,13.7,36.1,14.3z M34.1,16.1
        c-0.5-0.2-1.5,0-1.9,0.4c-1,0.8-1.7,1.9-2.3,3.1c-0.2,0.4-1.1,2.3-0.3,2.4c0.6,0.1,1.9-2,2.2-2.3C32.7,18.5,33.5,17.3,34.1,16.1
        C34.1,16.1,33.8,16.8,34.1,16.1z" />
        <path id="XMLID_17_" class="st0" d="M55.6,2.6c0,0.1-0.1,1.2-0.2,1.1c-0.2-0.2-0.2-0.9-0.4-1.1c-0.3-0.4-0.7-0.7-1.1-0.8
        c-1-0.4-2.2-0.3-3.2,0c-2.1,0.7-3.7,2.5-5,4.2c-2.9,3.6-5.1,7.8-7.2,11.9c0.4-0.4,3.5-2.9,3.8-2c0.1,0.3-0.9,1.5-1.1,1.8
        c-0.5,0.8-0.9,1.5-1.2,2.4c-0.2,0.6-0.6,1.6,0,2c0.5,0.4,1.3,0,1.8-0.3c1.5-0.8,2.6-2.2,3.6-3.5c0.1-0.1,0.2-0.1,0.2,0.1
        c-1,1.5-2.4,2.9-4,3.9c-1.1,0.7-3.5,1.2-3-0.9c0.2-0.8,0.6-1.5,1-2.2c0.3-0.5,1.1-1.6,1-2.2c-0.1-1-2.6,1.8-2.8,2.1
        c-0.5,1-1,1.9-1.6,2.9c-0.2,0.3-0.3,0.6-0.7,0.6c-0.4,0-0.5-0.3-0.4-0.7c2.7-5,5.7-9.9,9-14.5c1.5-2.1,3.3-4.3,5.5-5.8
        C51.4,0.3,55.6-0.6,55.6,2.6z" />
        <path id="XMLID_19_" class="st0" d="M51,11.4c-0.4,0.1-0.8,0.3-1,0.6c-0.9,1.3-1.8,2.7-2.6,4.1h3.7c0.3,0.2-1.4,0.3-1.6,0.3
        c-0.8,0-1.6,0.1-2.4,0.1c-0.7,1.2-2,3.1-1.7,4.6c0.3,1.7,2.6,0.4,3.4-0.1c0.1-0.1,0.4,0.1,0.1,0.2c-1,0.7-4.6,2.5-4.8,0.2
        c-0.1-1.6,1.3-3.5,2.1-4.8c-0.1,0-1.6,0.2-1.6,0c0.1-0.1,0.2-0.3,0.4-0.4l1.5,0c0.8-1.4,1.7-2.8,2.5-4.2c0.6-0.3,1.3-0.6,2-0.8
        C51.1,11.2,51.1,11.3,51,11.4C50.8,11.4,51.1,11.3,51,11.4z" />
        <path id="XMLID_21_" class="st0" d="M50.4,22c-2.4,0,1.2-4.6,1.6-5.3c0-0.1,1.2-0.8,1.2-0.4c-0.8,1.3-1.8,2.7-2.4,4.1
        c-0.2,0.5-0.4,1.1,0.2,1.1c0.5,0.1,1.4-0.6,1.7-0.9c0.9-0.9,1.5-2.5,2.1-3.6c0.1-0.3,0.8-1.7,1.2-1.6c0.6,0.1,0.2,1.1,0.1,1.3
        c-0.7,1.2-1.7,2.4-2.6,3.5c-2.5,3.8-4.7,7.9-7.8,11.2c-1.4,1.5-3.2,3-5.4,3.4c-1.8,0.3-4.3-0.3-3.4-2.7c0,0,0.1-0.1,0.1-0.1
        c-0.3,0.2,0.7,1.6,0.9,1.8c0.6,0.5,1.5,0.5,2.3,0.4c2-0.1,3.8-1.6,5.2-3c2.9-2.9,5.1-6.7,7.1-10.2c0-0.1,0-0.1-0.1,0
        C51.9,21.6,51.2,22,50.4,22z" />
        <path id="XMLID_23_" class="st0" d="M75.5,0.9c0,0.8-0.3,1.6-0.3,2.3c-0.1,0.1-0.2,0.1-0.3,0c0.6-2.2-2-2.3-3.5-1.7
        c-1.8,0.8-3.1,2.7-4,4.3c-1.9,3.3-3.7,6.8-5.4,10.2c1.4,0,2.8,0,4.1,0c0.1,0.1,0.1,0.2,0.1,0.3c-1.5,0-2.9,0.1-4.4,0.1
        c-2.4,4.7-5.1,9.4-8.4,13.6c-2.4,3.1-5.1,6.1-8.4,8.3c-2.5,1.6-8.4,4.1-9.4-0.4c0-0.1,0-0.2,0.1-0.2c0.2,0.1,0.3,0.7,0.4,0.8
        c0.2,0.3,0.5,0.6,0.9,0.8c0.7,0.5,1.6,0.6,2.4,0.5c1.9-0.1,3.8-0.8,5.5-1.8c3.3-2.1,5.9-5.2,8.1-8.4c2.9-4.3,5.1-8.9,7.7-13.3
        c-0.9,0.1-1.8,0.1-2.7,0.3c-1,0.2-1.4,0.9-1.8,1.8l-0.1,0c0.4-0.9,0.8-1.9,1.8-2.1c0.9-0.3,2.1-0.3,3-0.3c1.8-3.3,3.7-6.6,5.8-9.7
        c1.2-1.8,2.5-3.5,4.2-4.9c0.7-0.6,1.5-1.1,2.4-1.4C73.9-0.1,75.5-0.1,75.5,0.9z" />
        <path id="XMLID_25_" class="st0" d="M70.2,18.4c-1.2,1.6-3.9,4.4-6.2,3.9c-2.3-0.5,0.8-4.8,1.6-5.8c0.3-0.5,1.6-0.7,1-0.1
        c-0.5,0.8-3.2,4.6-1.9,5.4c0.8,0.5,2.3-0.6,2.9-1.1c0.9-0.7,1.8-1.6,2.5-2.5c0-0.1,0.1-0.1,0.2-0.1C70.3,18.2,70.3,18.3,70.2,18.4
        C69.8,19,70.3,18.3,70.2,18.4z M68.9,11.7c0,0.6-1.2,1.6-1.4,0.7C67.3,11.7,68.9,10.8,68.9,11.7z" />
        <path id="XMLID_28_" class="st0" d="M74.9,16.3c-0.1,1.5-1.8,3-2.8,3.9c-0.9,0.8-2.4,2.3-3.7,2.3L68,22c0-0.1,0-0.1,0.1-0.1
        c1.3-0.1,1.6-1.3,1.8-2.4c0.1-0.8,0.1-1.9,0.5-2.6c0.1-0.3,0.2-0.5-0.2-0.5l-0.9,0.1c0,0-0.1-0.1-0.1-0.1c0-0.2,2.5-0.5,2.9-0.6
        c0.1,0,0.1,0.1,0,0.1c-0.2,0.2-0.4,0.3-0.5,0.5c-0.4,1-0.4,2.1-0.8,3.1c-0.3,0.7-0.8,1.3-1.4,1.8c-0.1,0.1-0.1,0.2,0,0.1
        c1.5-0.5,2.9-1.5,3.7-2.8c0.5-0.8,1.6-3.2,0.5-4c0.1,0.1,0.6,0,0.9,0.2C74.9,15.3,75,15.9,74.9,16.3C74.9,16.7,75,15.9,74.9,16.3z" />
        <path id="XMLID_30_" class="st0" d="M82.7,18.8c-1,1.2-2.2,2.3-3.6,3c-0.9,0.5-3,1.4-3.8,0.3c-0.8-1,0.3-3,0.9-3.9
        c0.6-0.9,2.5-3.1,3.9-2.5c1.4,0.6-0.9,2.4-1.5,2.6c-0.4,0.1-0.7,0.2-1.1,0.3c-0.5,0.1-0.6,0-0.8,0.3c-0.3,0.4-0.4,1.4-0.4,1.9
        c0.1,1.5,1.7,1.2,2.7,0.7c1.4-0.6,2.6-1.7,3.5-2.9C82.6,18.6,82.7,18.6,82.7,18.8C82.4,19.2,82.7,18.7,82.7,18.8z M79.6,16.4
        c0-0.9-1.2-0.1-1.4,0.2c-0.5,0.5-0.9,1.2-1.2,1.8C78.2,19,79.6,17.5,79.6,16.4z" />
    </g>
</svg>
