<?xml version="1.0" standalone="no"?>
<!DOCTYPE svg PUBLIC "-//W3C//DTD SVG 1.1//EN" "http://www.w3.org/Graphics/SVG/1.1/DTD/svg11.dtd" >
<svg xmlns="http://www.w3.org/2000/svg">
<metadata>
Created by FontPrep 20130207 at Sun Jan 25 23:23:29 2015
 By mjeightyfive
The digitally encoded machine readable outline data for producing the Typefaces licensed to you is copyrighted (C), 1999 by and the property of Heidelberger Druckmaschinen AG  and/or its subsidiaries. All rights reserved.
</metadata>
<defs>
<font id="e2697a28f22742fcbb6b620e1f156a1b" horiz-adv-x='1024' >
  <font-face 
    font-family="LinotypeZapfino-One"
    font-weight="400"
    font-stretch="normal"
    units-per-em="2048"
    panose-1="0 0 4 0 0 0 0 0 0 0"
    ascent="1638"
    descent="-410"
    x-height="442"
    cap-height="895"
    bbox="-1438 -1231 2279 1878"
    underline-thickness="102"
    underline-position="-153"
    unicode-range="U+0020-F002"
  />
<missing-glyph horiz-adv-x="1024" 
d="M256 129h512v1110h-512v-1110zM129 0v1366h768v-1366h-768z" />
    <glyph glyph-name=".notdef" horiz-adv-x="1024" 
d="M256 129h512v1110h-512v-1110zM129 0v1366h768v-1366h-768z" />
    <glyph glyph-name="glyph1" horiz-adv-x="0" 
 />
    <glyph glyph-name="nonmarkingreturn" horiz-adv-x="411" 
 />
    <glyph glyph-name="space" unicode=" " horiz-adv-x="411" 
 />
    <glyph glyph-name="exclam" unicode="!" horiz-adv-x="450" 
d="M225 109q45 -1 45 -57q0 -24 -20.5 -44t-46.5 -20q-39 0 -39 39q0 82 61 82zM662 812q0 -7 -9 -7h-4q-23 0 -43 -17q-133 -109 -342 -587q-2 -6 -9 -6t-7 8v2q125 358 233 565q33 64 89 64t74 -8t18 -14z" />
    <glyph glyph-name="quotedbl" unicode="&#x22;" horiz-adv-x="669" 
d="M723 952q0 -6 -6 -14q-113 -143 -357 -481q-4 -6 -10 -6q-12 0 -12 12q0 4 38 58t133 213t144 229q12 18 33 18q37 0 37 -29zM494 450q0 6 39 70t119 200t151 228q13 16 41 16t28 -19q0 -20 -149 -214q-149 -195 -207 -280q-4 -7 -13 -7t-9 6z" />
    <glyph glyph-name="numbersign" unicode="#" horiz-adv-x="673" 
d="M600 502q-23 -2 -129 -13q-47 -74 -78 -124l-51 -84q53 6 127 8q43 72 131 213zM813 794q-1 -8 -29 -50t-116 -175q100 5 100 0q0 -6 -12 -15t-34 -29.5t-42.5 -21.5t-56.5 -3l-60 -92q-31 -49 -71 -119h38q72 0 72 -31l-27 -53q-4 -10 -8 -10t-33.5 8t-87.5 10
q-82 -141 -129 -240q-6 -14 -13 -14q-19 0 -19 14t139 240q-61 0 -127 -8q-88 -150 -129 -246q-10 -25 -23 -25q-20 0 -20 25q0 7 13 29t132 213q-27 -4 -73 -13h-2q-13 0 -13 6t10.5 15.5t13.5 15.5t11 21q16 20 100 30l64 103q20 35 68 108q-27 -4 -80 -10h-4q-10 0 -11 8
q0 10 37 62q8 12 29 12l74 2l100 164q18 29 30 29t13 -8q0 -8 -4 -15q-63 -90 -117 -170q29 0 127 6l137 215q12 20 22 20t11 -8z" />
    <glyph glyph-name="dollar" unicode="$" horiz-adv-x="741" 
d="M674 293q0 117 -131 162q-164 -279 -262 -469q25 -4 59 -4q127 0 217 71q117 95 117 240zM608 854q-62 0 -106 -35q-76 -59 -92 -145q-2 -10 -2 -23q0 -55 39 -82t110 -51l156 266q-43 70 -105 70zM885.5 1026q-0.5 -6 -2.5 -10l-111 -180q14 -29 19 -68v-12
q0 -16 -19.5 -45t-21.5 -29q-10 0 -10 24t-13 54l-149 -248q41 -14 86 -33q102 -45 102 -143q0 -146 -170 -276t-320 -130h-24q-70 -143 -133 -325q-4 -11 -12 -11q-9 0 -9 24q-2 79 127 316q-53 8 -103 35t-50 99l-4 65v2q0 10 7 10t7 -8q6 -53 54 -92t120 -55
q100 184 268 471q-57 16 -116 33q-72 29 -72 79q0 18 8 41q53 143 164 234q72 57 142 57t108 -47l76 129q24 45 46 45q6 0 5.5 -6z" />
    <glyph glyph-name="percent" unicode="%" horiz-adv-x="1296" 
d="M125 -217l-2 21q0 9 14 22q592 547 824 860q106 142 106 192q0 90 -121 91q-59 0 -143 -22.5t-117 -26.5h-18q-25 0 -37 10q-49 -25 -92 -84q-82 -113 -95 -228v-16q0 -66 50 -65q23 0 53 18q74 45 119 131t45 166v4q0 20 -9.5 34.5t-9.5 19.5t6.5 5t24.5 -7t25 -9
q29 -10 28 -61q0 -10 -4 -31q-20 -99 -112 -197t-192 -98t-99 86v18q16 121 120 238q49 55 134 84q-7 10 -7 45t17 35q4 0 14 -15.5t39 -15.5l240 23q96 0 139 -54q23 -27 22 -63q0 -66 -110 -215q-182 -248 -672 -754q180 125 362.5 249t348.5 212q31 21 36 21t7 -7v-2
q0 -4 -38 -40t-40 -38q-33 -39 -63.5 -116.5t-30.5 -128.5q0 -76 55 -76q41 0 86 47q106 109 107 264v17q-2 43 -31 65.5t-29 26.5t12.5 9t27.5 15t23 11q8 0 26 -15t100 -22h86q14 0 14 -6q-2 -5 -145 -21q-18 -2 -19 -18l4 -41q0 -45 -22 -107q-43 -117 -124 -185
t-149 -69q-92 0 -92 99q0 125 141 268q-492 -307 -813 -574q-10 -8 -18 -8h-2q-6 2 -6 3z" />
    <glyph glyph-name="ampersand" unicode="&#x26;" horiz-adv-x="1808" 
d="M1067 379q0 86 16 176q-72 -63 -211 -195q-168 -174 -172 -301q0 -160 234 -159q173 0 299 67q-166 117 -166 412zM1591 502q0 127 -75.5 212t-200.5 113q-78 -134 -203 -247q-8 -55 -8 -119q0 -303 201 -451q59 41 122 107q164 170 164 385zM1292 834q-37 6 -90 10
q-53 -92 -78 -203q111 93 168 193zM1298 942q-35 0 -86 -82q53 -2 91 -8q10 20 20 61q0 29 -25 29zM1194 860q60 107 119 107q41 0 41 -33t-29 -86q307 -61 307 -324q0 -92 -43 -196q-80 -195 -270 -328q75 -47 143 -47q68 1 134 23t112.5 93.5t46.5 148.5q0 127 -69 183
q-12 11 -26 13t-14.5 8t9.5 6h8l59 8q18 0 37 -10q60 -36 60 -118t-29 -148q-72 -172 -244 -226q-66 -20 -146 -20t-151 43q-147 -78 -295 -78t-236 59q-87 60 -87 188t149 265q55 49 167 124t151 106q29 115 88 223l-37 2q-372 0 -633 -244q-114 -110 -184 -258t-70 -312
t105 -272q152 -160 471 -160t538 183q4 4 10 6t7 0q-2 -4 -4 -12q-8 -25 -64.5 -62t-107.5 -57q-184 -74 -390 -72q-274 2 -457 127t-184 355q0 120 60 246t151 218q225 231 486 295q133 33 280 33h31z" />
    <glyph glyph-name="quotesingle" unicode="'" horiz-adv-x="446" 
d="M379 518q-10 0 -10 8q0 29 235 426q12 18 40 18t28 -22q0 -23 -110 -172q-110 -150 -169 -250q-4 -8 -14 -8z" />
    <glyph glyph-name="parenleft" unicode="(" horiz-adv-x="749" 
d="M940 1038q0 -6 -6 -8q-109 -47 -201 -141q-266 -272 -405 -610q-61 -150 -61.5 -238t63.5 -139q4 -4 4 -9t-6 -6q-45 0 -84 80t-39 132t22 122q84 258 284 488.5t417 334.5h4q6 0 8 -4v-2z" />
    <glyph glyph-name="parenright" unicode=")" horiz-adv-x="831" 
d="M971 815q0 -100 -72 -254q-102 -221 -256 -397q-188 -217 -381 -273h-6q-8 0 -8 6.5t8 8.5q129 41 248 178q256 293 375 623q43 121 43 196.5t-45 118.5q-4 4 -5 8q0 6 7 6q41 0 67 -85t25 -136z" />
    <glyph glyph-name="asterisk" unicode="*" horiz-adv-x="520" 
d="M760 750q0 -22 -29 -29q-53 -10 -188 -45q63 -45 162 -115q8 -6 8 -16q0 -25 -29 -25q-6 0 -12 5t-144 132q-2 -27 -12 -196q0 -14 -35 -19h-6q-18 0 -18 15v6q16 57 55 203q-30 -10 -108 -44t-80 -36q-18 0 -25 22v4q0 25 25 29q57 8 182 39q-27 20 -162 119
q-12 8 -12 22q0 27 30 27q8 0 15 -6q39 -43 141 -148q8 80 27 205q4 18 35 19h4q16 0 16 -17q0 -1 -11 -35t-52 -174q88 28 138 54t56 26q29 0 29 -22z" />
    <glyph glyph-name="plus" unicode="+" horiz-adv-x="819" 
d="M520 315v254h62v-254h254v-61h-254v-254h-62v254h-254v61h254z" />
    <glyph glyph-name="comma" unicode="," horiz-adv-x="430" 
d="M326 142q0 -22 -17 -38q-223 -223 -346 -362q-8 -8 -17 -8t-9 11t6 17q129 147 340 428q10 14 22 14.5t16.5 -20t4.5 -42.5z" />
    <glyph glyph-name="hyphen" unicode="-" horiz-adv-x="473" 
d="M242 291l94 -2l219 4q23 0 23 -15t-27 -16l-313 -2q-20 0 -21 12q0 18 25 19z" />
    <glyph glyph-name="hyphen" unicode="&#x2010;" horiz-adv-x="473" 
d="M242 291l94 -2l219 4q23 0 23 -15t-27 -16l-313 -2q-20 0 -21 12q0 18 25 19z" />
    <glyph glyph-name="period" unicode="." horiz-adv-x="450" 
d="M297 90q0 -25 -31.5 -62.5t-64.5 -37.5t-33 30v7q0 37 28.5 67.5t64.5 30.5t36 -35z" />
    <glyph glyph-name="slash" unicode="/" horiz-adv-x="753" 
d="M197 -319q-1 17 327 721t339 719t25 15t13 -10q0 -10 -663 -1445q-12 -16 -25 -17q-16 0 -16 17z" />
    <glyph glyph-name="zero" unicode="0" horiz-adv-x="716" 
d="M856 646q0 157 -90 157q-55 0 -137 -51t-129 -101q-219 -237 -226 -485q0 -158 129 -158q70 0 156 58q127 84 212 253.5t85 326.5zM842 862q34 0 64 -49t30 -128t-39 -187q-68 -190 -199 -340q-158 -180 -340 -180t-184 167q0 213 244 488q70 78 164 121q84 32 166 70
t94 38z" />
    <glyph glyph-name="one" unicode="1" horiz-adv-x="569" 
d="M841 864q5 0 5 -5t-6 -13q-264 -371 -443 -727q-35 -70 -35 -102t12.5 -53t12.5 -27t-6 -6.5t-17 13.5t-39 51q-28 36 -28 72q0 120 403 687q4 6 5 8v2q0 2 -2.5 2t-90.5 -72t-264 -231q-6 -6 -14 -6h-4v4q0 9 12 27t94 84t190 154q108 89 136 105q53 23 63.5 28t15.5 5z
" />
    <glyph glyph-name="two" unicode="2" horiz-adv-x="835" 
d="M223 135q-68 0 -151 -22q-37 -10 -37 -43t61 -33q95 0 234 96q-39 2 -107 2zM889 85q0 -13 -7.5 -46t-9.5 -41t-8 -8t-10 4q-90 88 -410 129q-41 6 -77 8q-176 -143 -250 -143q-27 0 -49 10q-56 26 -56 60t31 61q88 76 256 80h37q27 0 80 -2q259 210 344 391q18 39 18 76
q0 111 -129 110h-14q-129 -8 -211 -106q-12 -16 -28 -39t-22 -23q-7 0 -7 5q1 5 45 65q132 180 291 180q160 0 159 -121q0 -182 -418 -538q285 -14 420 -86q25 -13 25 -26z" />
    <glyph glyph-name="three" unicode="3" horiz-adv-x="749" 
d="M672 478q0 -24 22 -52l58 -70q28 -43 28 -91t-51 -118q-45 -57 -100 -96q-158 -113 -334 -112q-117 0 -162 55q-29 33 -29 71t8 60t14.5 20t4.5 -14q-12 -70 78 -113q66 -31 153 -34q134 -6 234 75t100 172q0 49 -30 93q-27 28 -58 62q-59 64 0 110q68 43 176 110
q66 41 66 76t-29 63q-71 70 -193 66t-186 -100q-6 -11 -13 -11t-9 8.5t4 14.5q72 72 194 131q56 30 130 18t123 -44t49 -78q0 -88 -123 -158q-74 -41 -99.5 -65.5t-25.5 -48.5z" />
    <glyph glyph-name="four" unicode="4" horiz-adv-x="966" 
d="M305 379q0 -29 43 -55q72 -45 260 -43q242 391 242 475q0 65 -71 52t-226.5 -139t-214.5 -214q-33 -47 -33 -76zM398 250q-100 0 -158 29q-33 16 -33 47q0 86 258 299q147 119 255 178t204 55q43 -2 43 -37q0 -10 -6 -22q-57 -137 -149 -279t-142 -237q236 12 438 82
q12 3 13 -3t-13.5 -29t-43.5 -26q-28 -2 -131 -16t-276 -29q-113 -209 -100 -242q4 -10 2 -17t-10 -1t-43 1t-84 -50q-18 -20 -55 -62q-8 -8 -15 -2q-4 8 2 17q53 65 240 350q-96 -6 -196 -6z" />
    <glyph glyph-name="five" unicode="5" horiz-adv-x="638" 
d="M1018 1046.5q14 -0.5 14 -40.5t-10 -64q-47 -113 -172 -163t-279 -15h-4q-15 0 -80 -98q-20 -39 -20 -64q0 -49 98 -106q39 -23 60 -39q49 -39 49 -101t-35 -120q-79 -136 -229 -236t-260 -100h-9q-45 0 -78.5 28.5t-33.5 64.5t8 36q6 -2 6 -8v-13q-2 -6 -2 -8
q0 -78 98 -78h8q215 0 378 233q109 156 10 253q-37 25 -109 79q-23 20 -23 39q0 80 185 314q10 12 13 12l134 -16q206 0 269 114q12 23 12 44q0 20 -6 32t-6 16.5t14 4z" />
    <glyph glyph-name="six" unicode="6" horiz-adv-x="690" 
d="M662 354q0 68 -72 68q-143 0 -254 -143q-53 -67 -53 -174t75.5 -107t173.5 96t125 223q5 21 5 37zM588 440q59 0 91 -29.5t32 -74.5t-23 -92q-78 -160 -223 -232q-70 -35 -139 -35q-131 0 -131 129q0 45 16 97q49 157 186 309t333 282t337 130q49 0 84 -22t35 -71
q0 -16 -5 -28t-10 -12q-4 2 -4 6v2l2 10q-1 33 -35 53t-96 21h-18q-140 -5 -290 -109t-248 -234t-136 -221q124 121 242 121z" />
    <glyph glyph-name="seven" unicode="7" horiz-adv-x="681" 
d="M500 758q-84 0 -125 -60q-53 -80 -78 -168q-2 -8 -9 -8t-7 8v2q37 135 122 238q59 70 146 70q47 0 163 -28t151 -28q36 0 69 35t63 35h6q15 -2 15 -12t-4 -13q-47 -45 -109 -67q-203 -216 -351 -364q-222 -222 -220 -335q0 -38 30 -63q8 -2 8 -9t-9 -9t-37.5 -14.5
t-37.5 -12.5t-16 8q-20 29 -20 80t51 115q104 127 231 252q328 322 328 338v2q-2 2 -6 2l-111 -15q-48 0 -223 21h-20z" />
    <glyph glyph-name="eight" unicode="8" horiz-adv-x="677" 
d="M653 259q0 50 -28 101q-25 33 -70 103q-70 -41 -141 -88q-152 -100 -152 -221q0 -59 38 -96.5t94 -37.5t121 41t101 95t37 103zM829 764q0 59 -61 59q-23 0 -43 -8q-82 -31 -127 -106q-23 -37 -23 -78t50 -107q145 88 190 187q14 30 14 53zM897 784q0 -100 -154 -206
q-35 -25 -106 -68q8 -14 39 -51q47 -66 47 -118t-23 -97q-49 -98 -149 -181q-113 -90 -215 -90q-63 0 -104.5 37t-41.5 101q0 164 314 342l43 24q-31 53 -31 106t39 109q115 164 254 164h10q78 -4 78 -72z" />
    <glyph glyph-name="nine" unicode="9" horiz-adv-x="645" 
d="M735 758q0 76 -69 76q-59 0 -146 -58q-133 -88 -174 -244q-6 -23 -6 -34q0 -72 84 -72q18 0 31 2q150 27 231 178q49 93 49 152zM688 858q123 0 123 -117q0 -51 -20 -114q-53 -164 -174 -317t-267 -247t-248 -94t-149 64q-2 2 -2 7t6 5q-8 0 35 -23.5t92 -23.5h10
q233 -4 447 307q72 104 125 227q-121 -129 -248 -129q-68 0 -105 46q-18 23 -18 59q0 84 84 178t167 133t142 39z" />
    <glyph glyph-name="colon" unicode=":" horiz-adv-x="489" 
d="M248 90q0 -25 -31.5 -62.5t-64.5 -37.5t-33 30v7q0 37 28.5 67.5t64.5 30.5t36 -35zM428 428q0 -25 -31.5 -62.5t-64.5 -37.5t-33 30v7q0 37 28.5 67.5t64.5 30.5t36 -35z" />
    <glyph glyph-name="semicolon" unicode=";" horiz-adv-x="473" 
d="M279 162q0 -43 -15 -58q-223 -223 -346 -362q-8 -8 -17 -8t-9 11t6 17q129 147 340 428q10 14 26 14t15 -42zM424 430q0 -29 -31 -64.5t-63 -35.5t-33 30v7q-2 37 26.5 67.5t64.5 30.5t36 -35z" />
    <glyph glyph-name="less" unicode="&#x3c;" horiz-adv-x="514" 
d="M209 201q0 10 9 15q9 6 172 136t170 130t7 -11v-4q-2 -6 -51 -41t-229 -178q-19 -14 -19 -41t41 -129t43 -111q0 -4 -33 -10t-31 -8q-8 2 -20 47t-59 201v4zM288 -51h3h-3z" />
    <glyph glyph-name="equal" unicode="=" horiz-adv-x="2320" 
d="M1608 779l2 -9q0 -18 -22 -18t-21 14q17 28 30 29q9 -1 15 -7q-4 -6 -4 -9zM352 512q-113 0 -112 -20q0 -8 42 -8t111 24q-16 4 -41 4zM1046 496q-24 0 -24 17t27 58l-15 -10q-78 -67 -100 -67t-23 26q0 26 47 62q47 35 152 94q-31 2 -66 2l-229 -4h-22q-18 -2 -33 -2
q-100 -61 -152 -85t-149 -65l-29 -12q98 -18 272 -96q25 -12 156 -74l113 -51l14 22q72 113 133 203l31 45q-79 -63 -103 -63zM915 111q0 -18 33 -31l-2 -6l-18 6q-51 14 -51 37q0 14 18 47l31 53q14 20 37 59q-3 3 -163 76q-160 72 -230 102t-162 50q-70 -29 -124 -29
t-55 14q0 27 113 31q31 0 68 -8q29 10 79 33l113 51q51 23 141 76q-116 0 -276 -29l-4 19q59 12 164 16l106 4h31q33 25 108 80q156 123 156 145q0 4 -66 2t-163 -32q-55 -16 -56 -48q0 -10 15 -24l-4 -2q-23 23 -23 51t17 41q41 33 215 47q31 2 106 10l2 -16
q-14 -47 -193 -180q-54 -41 -100 -72h31l115 4l184 4q0 -8 20 -18q6 4 16 18t25 15h7q-29 -29 -74 -95t-45 -78t11 -12t47 22t71 64q36 49 62 82t52 78l3 -18q-5 -24 -25 -50t-37 -49q16 5 68 27l2 -19l-45 -69q-35 -50 -35 -68t12 -18q18 0 63 33q44 33 93 106
q-25 0 -64 -6l-4 4q23 4 74 12l14 21q181 256 274 349q32 32 91 83q-258 109 -655 105q-396 -5 -678 -164q-354 -201 -373 -584q-16 -334 366 -543q190 -104 418 -141q23 31 68 90q94 135 213 334q-86 35 -154 65q-74 -148 -74 -157zM1214 479q-58 0 31 123q29 41 29 47
q-2 6 -4 6q-27 0 -70 -50q-100 -117 -205 -326q96 -43 156 -64q66 115 195 346q-86 -82 -132 -82zM1114 663q0 7 -46 -21t-80 -65t-34 -48t7 -13q27 0 137 121q16 19 16 26zM1608 113q-165 0 -285 32q-39 10 -156 50l-32 -52q-175 -273 -258 -368q119 -16 223 -17
q480 0 766 224q200 155 268 354q27 80 27 121q-79 -166 -233 -255q-155 -89 -320 -89zM1708 461q0 6 6 33q-61 -43 -90 -43t-29 22q0 38 74 150q-4 0 -41 -28t-61 -71l-23 -39l-16 -24l-8 14l32 64q-23 -23 -59 -56q-27 -20 -55 -20t-27 26q0 16 43 80l29 43q14 23 16 29
q0 6 -12 6h-47q-148 -251 -262 -438q154 -53 305 -53q237 0 399 77q223 106 279 256q-11 79 -50 148l-217 -6h-30q-53 -186 -140 -187q-16 0 -16 17zM1753 469q27 0 57 59q30 58 31 78q0 20 -6 21q-18 -1 -57 -57t-39 -78t14 -23zM2118 647l77 2q-10 156 -145 287
q-109 106 -256 166q-115 -92 -236 -274q-69 -101 -112 -173h33q12 0 75 9q-6 -6 -55 -74t-49 -88t12 -21q27 0 86 70q4 4 60 94q8 14 17 14t9 -9q0 -8 -15 -30t-30 -49l35 33q16 16 42 32t32 17l10 -8q-78 -127 -78 -151t20 -25q20 0 68 41q23 47 57 85t56 38q4 0 14 -4
q2 10 2 24l15 11q27 -18 82 -19h38q20 0 62 1t61 1q-10 12 -24 27l4 6q18 -16 33 -33zM2195 639h-36q-23 -2 -35 -2q35 -61 47 -135q16 63 24 137zM411 -471q179 0 339 137q70 61 104 103q-371 63 -596 263t-219 468q8 416 383 602q291 145 749 135q375 -8 621 -123
q60 45 88 45t49 -14l2 -51l-6 -2l-4 20q-27 18 -57 18t-60 -20q166 -68 283 -186t117 -275h65q10 0 10 -6q-2 -4 -10 -4h-65q-2 -92 -33 -166q2 -25 2 -55q0 -131 -77 -266t-191 -215q-276 -193 -764 -193q-150 0 -273 20q-55 -66 -110 -110q-180 -150 -316 -150t-200 76
q-25 29 -31 84q21 -135 200 -135z" />
    <glyph glyph-name="greater" unicode="&#x3e;" horiz-adv-x="460" 
d="M473 230q0 -9 -8 -15q-158 -121 -293 -260q-16 -16 -32.5 -16t-16.5 8t12 18q129 98 260 219q22 19 6 41q-133 217 -133 223.5t17 9.5t24 6t17 3t18 -14q39 -72 125 -207q4 -7 4 -16z" />
    <glyph glyph-name="question" unicode="?" horiz-adv-x="561" 
d="M309 49q0 -29 -59 -47q-12 -4 -19 -4q-43 0 -43 41t35 65.5t44 24.5q9 -1 15 -23t16.5 -36.5t10.5 -20.5zM483 213q9 -2 9 -10t-24 -8h-67q-23 1 -51 29t-28 73t30 57q63 25 121 62q265 172 262 321q0 55 -33.5 89t-83.5 34t-100 -29q-72 -41 -119 -118q-2 -4 -11 -4
t-9 12q0 11 60 67t87 72q72 43 139 43t111.5 -37t44.5 -100q0 -129 -190 -268q-63 -41 -185 -136q-35 -33 -34 -69q0 -63 71 -80z" />
    <glyph glyph-name="at" unicode="@" horiz-adv-x="1191" 
d="M918 678q-53 0 -93 -33q-152 -125 -233 -319q-8 -18 -8 -34t14 -17t35 18q121 111 248 282q41 56 61 101q-10 2 -24 2zM954 696q62 0 62 -18q0 -10 -16 -21t-56 -87q-88 -165 -88 -238q0 -92 92 -92q51 0 115 34q172 96 215 351q6 37 6 57q0 113 -77 178.5t-208 65.5
q-213 0 -417 -152q-231 -170 -301 -412q-20 -70 -21 -139q0 -137 85 -220t207 -83q213 0 390 141q96 76 107 132q2 8 6 8h2q4 -2 4 -8v-5q-10 -53 -62 -100q-89 -84 -211 -144t-222 -59q-100 0 -171 23q-217 72 -217 291q0 88 41 176q123 268 352 419t447 150
q171 0 250.5 -76t79.5 -180t-68 -219q-150 -256 -383 -256q-111 0 -111 90q0 61 60 191q-215 -265 -301 -265q-35 0 -35 41q0 42 38 126t125 173.5t175 114.5q44 12 106 12z" />
    <glyph glyph-name="A" unicode="A" horiz-adv-x="1261" 
d="M1272 819q0 8 -5 8q-26 0 -227 -126t-348 -224q213 -14 414 -14q166 327 166 356zM1258 864q26 28 42 29q16 0 45 -4l113 8q10 0 10 -10q0 -4 -31.5 -12.5t-43.5 -30.5q-219 -375 -355 -692q-23 -53 -22 -84q0 -66 68 -66t169 66q5 4 13 4t8 -5t-10 -12
q-151 -94 -257 -95t-106 79q0 45 51 135t146 272h-39q-248 0 -443 -20q-188 -127 -309 -219t-203 -193q-33 -39 -38 -60t-11 -22q-10 0 -10 15l8 80q-2 23 78 84q188 143 451 319q-17 13 -17 45q0 33 6 33q30 -24 88 -29q215 140 461 287q112 70 138 98z" />
    <glyph glyph-name="B" unicode="B" horiz-adv-x="960" 
d="M977 739q0 129 -184 129q-53 0 -76 -28q-86 -111 -391 -717q-21 -43 -2 -68q59 -80 180 -78q214 4 340 179q57 84 57 147t-50 97t-128 36l-109 -14q-28 0 -28 22q2 23 22 23l86 -12q129 0 206 99t77 185zM1075 721q0 -31 -18 -72q-70 -152 -269 -196q-4 -1 -4 -5t4 -6
q94 -16 148 -50t55 -108q0 -74 -54 -148q-54 -73 -143 -126t-247 -53t-246 53q-39 23 -68 13q-47 -21 -64 -33t-25 -12t-9 6q0 6 20.5 33.5t22.5 29.5q92 156 265 472t173 343q0 8 -26 8t-105 -13t-115 -13t-36 22q0 33 10 33q18 -12 32 -14t58 -2l268 6q373 0 373 -168z
" />
    <glyph glyph-name="C" unicode="C" horiz-adv-x="1042" 
d="M1097.5 350q6.5 0 6.5 -26t-17 -52q-117 -172 -313 -254q-135 -55 -285 -55q-307 0 -307 244q0 149 102 313t248 278q148 114 334 115q186 2 308 -71q18 -10 18 -28t-16 -44q-16 -27 -38 -78t-30 -51t-8 8l12 60q0 100 -90 153q-57 33 -163 33q-105 0 -211 -84
q-192 -153 -308 -403q-66 -141 -66 -256q0 -170 220 -170q129 0 235 47q190 84 358 315q4 6 10.5 6z" />
    <glyph glyph-name="D" unicode="D" horiz-adv-x="1091" 
d="M1145 623q0 123 -96.5 187t-257.5 64q-47 0 -64 -24q-240 -379 -412 -729q-8 -17 -8 -27t12 -22q68 -72 214 -72t269.5 60.5t207.5 177.5q135 190 135 385zM1243 600q0 -156 -114.5 -320t-262.5 -230t-319 -66q-170 0 -266 51q-19 10 -37 10t-56 -22.5t-46 -22.5t-9 5
q0 5 37.5 56t95.5 153t170 294q188 332 189 350q0 10 -17 10q-84 -12 -254 -26q-37 -2 -37 32q0 27 11 27l29 -11q32 -11 57 -11l393 14q219 0 327 -68q108 -69 109 -225z" />
    <glyph glyph-name="E" unicode="E" horiz-adv-x="987" 
d="M1096 897q12 0 12 -12t-2 -15q-31 -45 -35 -45t-12 20.5t-297 20.5q-33 0 -49 -20q-88 -117 -215 -346q-10 -16 15.5 -18.5t121.5 -2.5t162 4q67 3 97 15t37 12t7 -6q-8 -14 -18 -41q-2 -12 -21 -12q-184 4 -265 4t-147 -2q-16 0 -22 -13q-152 -257 -153 -347
q-1 -91 154 -91q154 0 314 43t234 92q6 4 11 4t5 -5.5t-18 -19.5t-31.5 -40.5t-58.5 -36.5q-262 -59 -484 -59q-109 0 -179.5 13t-70.5 70q0 35 14 61t99 174q84 148 84 154q-1 6 -23 7q-22 0 -22 11t35 14t59 48q168 304 168 318t-12 14q-189 0 -219 -21l-11 -7q-6 0 -6 7
t11 38q4 12 20 12q150 -8 254 -8l307 10q68 2 115 2h35z" />
    <glyph glyph-name="F" unicode="F" horiz-adv-x="755" 
d="M1023 938q32 0 32 -5t-11.5 -22.5t-13.5 -23.5q-6 -20 -24 -21q-117 -2 -316 -10q-20 -2 -35 -25q-66 -109 -129 -233t-63 -129q0 -31 123 -33q49 0 141.5 16.5t112.5 16.5t20 -10q0 -35 -39 -37q-98 -4 -241 -4l-125 6q-16 0 -27 -16q-78 -143 -121 -228t-43 -129
q0 -35 52.5 -40t52.5 -13t-15 -8h-143q-82 6 -82 35q0 12 8 28q66 113 187 324q158 288 231 471q0 8 -14 10q-91 0 -90 14q0 8 18 9l182 -2q70 0 205 29.5t167 29.5z" />
    <glyph glyph-name="G" unicode="G" horiz-adv-x="1095" 
d="M887 428h28q51 0 145 10t142 21h6q12 0 13 -6q0 -8 -15 -13q-43 -12 -63 -57q-39 -89 -123 -279t-197 -317q-200 -227 -428 -227q-61 0 -89 10t-27.5 16t6.5 6t46 -9t64 -9q131 0 255 95t204 251q59 113 109 254q6 16 -9 16q-4 0 -10 -6q-74 -74 -192 -142t-262 -71
q-143 -2 -222.5 60.5t-79.5 171.5q0 70 31 151q82 221 254 373q88 78 218 129q129 51 277 51q148 -1 223 -35t75 -67q0 -20 -23 -55q-19 -55 -33 -76t-20 -21.5t-6 7.5t7 21t7 28q0 55 -70 115t-200 61q-317 0 -549 -422q-102 -182 -103 -305q0 -172 216 -166q154 4 268 80
q225 147 284 305q6 16 6 26t-22 11l-141 -8q-18 0 -19 12q0 10 19 10z" />
    <glyph glyph-name="H" unicode="H" horiz-adv-x="1189" 
d="M414 887q52 0 286 16q12 0 12 -10t-3 -16q-92 -145 -207 -381q-4 -8 -4 -18t178 -9q178 0 338 18q20 2 30 23q74 143 224 405q20 30 150 80q130 51 160 51t30 -9t-21 -9q-80 0 -153 -59q-143 -117 -297 -441t-154 -424q0 -80 86 -79q72 0 131 41q6 4 10 4q10 0 11 -9
q1 -20 -103 -48t-170 -29q-74 -2 -74 73q0 37 8 61t58 142q49 118 49 143q0 49 -90 50q-223 0 -418 -29q-23 -4 -37 -31q-115 -209 -182 -360q-8 -16 -24 -21q-55 -10 -80 -22t-29 -13q-8 0 -8 8.5t6 18.5q121 184 185 296t63.5 120t-14 25.5t-13.5 28.5t19 11h34
q12 0 21 17q145 279 145 329q0 37 -67 37l-90 -6q-12 0 -12.5 12.5t16.5 12.5z" />
    <glyph glyph-name="I" unicode="I" horiz-adv-x="446" 
d="M722 895q15 0 15 -9t-12 -14q-23 -6 -55 -80t-150 -314q-120 -241 -250 -455q-27 -43 -71 -52q-98 -6 -99 0q0 7 17 11t37 30q135 188 281 480t147 337q0 25 -37 27h-23q-60 0 -88 -4t-28 7t18 13q49 2 166 12t132 11z" />
    <glyph glyph-name="J" unicode="J" horiz-adv-x="665" 
d="M-258 -172q0 98 6 98t14 -28t11 -31q34 -70 186 -72q63 0 113 15q94 26 200 136t267 405.5t249 512.5q2 4 3 10q0 10 -13 11q-229 0 -364 -76q-92 -51 -92 -117q0 -23 8 -41v-4q0 -6 -4 -5.5t-14 20.5t-11 51q0 102 139 147q142 45 545 45q6 0 12 -10q-8 -8 -14 -8l-27 2
q-35 0 -47 -19q-37 -51 -153 -283t-193.5 -366.5t-159.5 -214.5q-236 -236 -481 -233q-92 0 -160 26q-20 8 -20 29z" />
    <glyph glyph-name="K" unicode="K" horiz-adv-x="1019" 
d="M385 858q-20 0 -20 19q0 13 11 31t16 18t5 -10.5t11 -12.5q66 -14 120 -14t291 10q15 0 15 -10t-84 -15q-16 0 -25 -16q-240 -418 -436 -811q-16 -33 -16.5 -45t-6.5 -12t-16 5t-30 5t-53.5 -20.5t-37.5 -20.5t-4 6q0 -2 56 79t102 163q201 356 327 651q2 2 2 7t-10 5
l-215 -12h-2zM1786 -226q0 -5 -8 -12q-131 -84 -336 -84q-313 0 -608 330q-156 174 -247 293t-91 124t8 9q220 128 370 230t351 233q12 8 26 8q53 0 54 -20l-48 -25q-149 -76 -359 -208t-294 -193q-8 -7 -8 -17t127 -162t191 -220q64 -70 189 -184q124 -114 247 -160
q123 -45 318 23l110 40q8 0 8 -5z" />
    <glyph glyph-name="L" unicode="L" horiz-adv-x="929" 
d="M244 20q500 35 564 35t81 -4q35 -8 33 -41q-4 -72 -27 -71q-6 -1 -6 17t-17 24q-152 58 -429 24.5t-359 -33.5q-23 0 -23 17q0 25 54.5 24.5t79.5 14.5q51 29 115 143t181 352t164 324q10 16 31 24q100 37 213 37q20 0 20.5 -14t-16.5 -14l-59 6q-45 1 -92 -69t-110 -188
t-202 -384q-45 -86 -81.5 -124t-80.5 -62t-45 -33q4 -2 11 -5z" />
    <glyph glyph-name="M" unicode="M" horiz-adv-x="1619" 
d="M1919 891q0 -10 -30 -13t-53.5 -7.5t-55.5 -40.5t-107 -158q-182 -297 -254 -502q-14 -41 -14 -72q0 -80 86 -80q41 0 89 20t91 38q6 0 6 -9q-1 -9 -19 -17t-98 -47q-80 -38 -161 -38q-109 0 -109 84q0 29 13 64q66 180 208 434t124 254q-19 1 -220 -183t-251 -231
t-186 -173t-181 -194q-3 -6 -55 -31t-61 -25t-9 15q0 16 114 334t142 455q2 10 -3 10t-10 -4q-379 -309 -636 -616q-131 -156 -132 -232q0 -10 5.5 -18t5.5 -10q0 -10 -12 -10t-30 14q-18 16 -34 23t-16 23t61 89q289 346 770 762q57 51 113 80q43 12 120 26q10 0 11 -8
q0 -4 -24.5 -14.5t-31.5 -15.5t-53 -96t-110 -276.5t-103 -344.5v-11q0 -14 7 -14t18 8q102 94 334 297q150 141 464 418q16 14 52 18q70 16 211 35q14 0 14 -10z" />
    <glyph glyph-name="N" unicode="N" horiz-adv-x="1144" 
d="M342 889q0 10 12 10h6q42 -12 86 -12t93 10t65.5 10t18.5 -18q11 -146 111 -365t188 -338q30 -43 53 -2q258 504 424 754q84 127 151 127q41 0 58 -29q6 -10 6 -14t-6 -4h-19q-96 0 -205 -154q-188 -268 -366 -665q-33 -74 -92 -209q-6 -14 -13 -15q-10 0 -18 15
q-197 338 -332 721q-10 27 -22 26q-10 0 -27 -24q-281 -434 -410 -750q-43 -106 -43 -190q0 -12 -4 -13q-8 2 -23.5 42t-15.5 68q0 61 251 481t251 472q0 43 -49 43l-104 -6q-25 0 -25 29z" />
    <glyph glyph-name="O" unicode="O" horiz-adv-x="1171" 
d="M586 -35q240 -1 429 229t189 473t-278 242q-213 0 -367 -172q-92 -104 -169 -258t-77 -274q0 -240 273 -240zM602 -53q-391 0 -391 280q0 129 84 287t186 252q174 160 443 160q158 0 260 -58q129 -72 127 -217q-4 -270 -219 -487t-490 -217z" />
    <glyph glyph-name="P" unicode="P" horiz-adv-x="923" 
d="M340 868q0 8 8 24t12.5 15.5t6.5 -8.5q6 -20 109 -20q104 0 276 14t149 14q104 0 166 -33q94 -49 94 -150q0 -102 -83 -188t-184 -121.5t-173 -35.5q-71 0 -93 9t-22 14t8 6l84 -11q88 0 154 33q117 59 180 182q31 59 31 131q0 145 -176 146q-57 0 -87 -8t-46 -37
q-256 -426 -396 -694q-23 -43 -22 -74q0 -70 113 -70h30q10 0 10 -6t-10 -8q-274 -44 -274 35q1 14 21 60t147 257t199 349q72 139 73 155q0 16 -10 16l-256 -18q-39 0 -39 22z" />
    <glyph glyph-name="Q" unicode="Q" horiz-adv-x="1142" 
d="M741 16q-51 88 -97 112q-124 63 -290 -40q59 -100 228 -100q81 -1 159 28zM1342 -88q8 0 8 -9t-58 -89q-109 -152 -235 -152q-53 0 -111 33t-121 160l-75 147q-94 -33 -191 -33q-172 0 -258 82q-76 -59 -139 -137q-6 -8 -12.5 -8t-6.5 6t7 14q49 61 141 135
q-68 72 -68 187t86 262t191 248q156 150 364 149q16 0 17 -10q0 -8 -13 -8l-24 2q-66 0 -123 -37q-123 -80 -211 -197q-111 -152 -148 -267q-61 -189 -16 -288q123 78 253 78t218 -129q141 80 240.5 242t99.5 313t-63 230q-33 41 -80 49q-10 2 -10 6q2 4 10 4q115 0 139 -18
q88 -67 88 -213q0 -265 -244 -504q-78 -76 -170 -123q47 -88 164 -250q61 -68 133 -68t156 103q25 31 51 82q3 8 11 8z" />
    <glyph glyph-name="R" unicode="R" horiz-adv-x="1069" 
d="M1061 713q0 159 -201 166q-72 0 -180 -170q-68 -117 -133 -236q-90 -152 -238 -434q-14 -33 -53.5 -33t-61.5 -8t-31 -22.5t-15 -14.5t-6 9t50 80t89 136l202 330q127 205 185 328q4 8 4 16t-15 8q-113 -6 -233 -73q-80 -45 -113 -115q-4 -10 -11 -10t-7 8l10 27
q10 27 12 47t25 32q213 119 500 117q333 0 336 -164q0 -80 -76 -148q-135 -121 -332 -140q-10 -1 -10 -7t2 -10q100 -184 231 -360q233 -315 512 -316q66 0 161 33t87 33q6 0 6 -6t-8 -11q-143 -74 -293 -75q-229 -2 -365 96t-272 311q-8 13 -92 157t-84 152q-1 8 19 10
l90 9q166 14 252 110q57 63 57 138z" />
    <glyph glyph-name="S" unicode="S" horiz-adv-x="686" 
d="M696 885q-72 0 -126 -51.5t-54 -123.5t39 -147q39 -53 115 -164q37 -57 37 -129t-70 -150q-143 -161 -373 -161q-111 0 -188 37q-27 12 -27 40t19 91q8 57 26 57q6 0 6 -10v-4q-6 -12 -6 -31q0 -80 70 -125q50 -32 150 -32t196 66t96 179q0 69 -52 135t-71 97
q-49 76 -49 143q0 110 95 220t249 110q82 0 125 -49q12 -15 12 -29t-10 -36.5t-18 -51.5q-7 -29 -17 -29t-10 8l6 31q0 55 -49 82t-121 27z" />
    <glyph glyph-name="T" unicode="T" horiz-adv-x="849" 
d="M1335 1106q3 0 27 -26t24 -48t-8 -37q-61 -102 -270 -110q-51 0 -139 -2q-31 -2 -43 -21q-184 -301 -367 -659q-37 -74 -37 -119q0 -84 140 -84q12 0 31 1t20 -5q0 -10 -17 -12q-56 -4 -126 -4t-93 2q-88 8 -88 69q0 31 29 80q211 369 387 733q2 2 4 8q0 10 -14 11h-64
q-119 0 -209 -13q-184 -25 -282 -176q-40 -64 -54 -98t-24 -35q-8 0 -8 10.5t20 44.5t54 96t61 95q49 61 140 79t179 17h168q80 -2 121 -2h88q160 2 255 53t95 123l-4 21q0 8 4 8z" />
    <glyph glyph-name="U" unicode="U" horiz-adv-x="1261" 
d="M786 891q0 -8 -30 -13t-51 -30q-199 -248 -349 -510q-51 -90 -51 -168q0 -143 158 -143q159 -1 317 105t275 286l225 405q27 47 72 64q88 31 112 31t23 -11q1 -10 -17 -12t-34 -23q-172 -212 -292 -450t-120 -330t88 -92q56 0 174 55q12 2 12 -7t-8 -13
q-143 -66 -250 -66q-135 0 -135 105q0 78 82 205v4q0 4 -2 4t-4 -2q-96 -109 -199 -176q-197 -131 -374 -132q-88 0 -154 43q-66 44 -66 116t41 148t196.5 301.5t158.5 260.5q0 18 -31 18h-41q-32 -2 -70 -2t-43.5 4t-5.5 11q4 6 15 12l163 -6q49 0 107 4q33 6 98 12
q10 0 10 -8z" />
    <glyph glyph-name="V" unicode="V" horiz-adv-x="1062" 
d="M1458 1044l-2 16q-2 17 5 17t16 -6q39 -29 39 -59t-9 -43q-31 -55 -159 -181q-274 -270 -418 -405t-291 -279q-59 -61 -79 -96t-42 -37q-20 -2 -57 -13t-46 -11t-9 8t7 20t17 43q88 293 117 580q4 41 4 55q0 203 -158 203q-107 0 -162 -59q-8 -8 -12 -9q-10 0 -10 11
q1 25 107 67t196 41q139 0 139 -153q0 -74 -22 -219q-29 -143 -66 -433q0 -12 7 -12t12 4q96 86 272 248q410 389 567 619q37 53 37 83z" />
    <glyph glyph-name="W" unicode="W" horiz-adv-x="1576" 
d="M2154 989l-28 2q-86 1 -260 -147t-394 -390t-339 -440q-13 -18 -57 -34t-52 -21.5t-16 -5.5t-8 8t6 19q8 11 10 47q23 301 22 649q0 29 -12 29t-22 -11q-98 -90 -330 -313t-371 -383q-14 -16 -42 -22q-27 -6 -49 -13q-22 -8 -31 -8t-9 8q0 -12 58 130q58 141 148 409
q91 268 93 306t-31 38l-58 -8q-58 -9 -58 -0.5t10 10.5q76 14 184 36t98 23q10 0 10.5 -8t-11.5 -17q-12 -10 -91 -222t-174 -541v-4q0 -6 5 -6t10 4q281 272 786 749q6 6 18 6t13 -12q0 -8 -14 -13t-17 -34q-23 -172 -27 -393v-101q0 -225 6 -225t13 8q253 304 417 486
t349 348q106 96 176 96q18 0 47 -10t29 -23q-1 -6 -7 -6z" />
    <glyph glyph-name="X" unicode="X" horiz-adv-x="1097" 
d="M1352 958q10 0 24.5 -24.5t14.5 -38.5t-15 -23q-315 -190 -583 -366q25 -182 57 -332t133 -149q72 0 172 79q2 2 8 2t6 -6t-6 -10q-158 -123 -276.5 -123t-145.5 209q-12 86 -36 268q-179 -120 -283 -194q-298 -210 -365 -338q-10 -18 -10 -35v-8q0 -6 -9 -6t-18.5 13.5
t-9.5 29.5t4 28q27 72 236 223t450 310q-25 168 -53 276q-31 123 -135 123t-190 -57q-6 -4 -12 -4t-5 7q0 7 8 11q154 84 310 84q70 0 101.5 -43t40.5 -123t26 -215q287 193 550 400q8 6 7 12l-7 14q1 6 11 6z" />
    <glyph glyph-name="Y" unicode="Y" horiz-adv-x="935" 
d="M526 2q-70 0 -96 -41q-2 -4 -12 -4t-10 12q0 -8 43 56q188 280 188 514q0 301 -248 301q-88 0 -151 -60q-23 -31 -58 -71q-4 -2 -9 -2t-5 6t4 12q115 174 297 174q127 0 191 -77t65 -186q0 -109 -14 -181q-2 -15 6 -15t218 198t337 304t196 107q27 0 56.5 -15.5
t29.5 -38.5q0 -6 -1 -6l-42 6q-63 0 -182 -71q-279 -170 -569 -500q-67 -75 -154 -311q-20 -57 -28 -95q-6 -24 -22 -20t-30 4z" />
    <glyph glyph-name="Z" unicode="Z" horiz-adv-x="946" 
d="M1106 -190q-116 0 -264 26q-178 39 -523 109q-147 27 -262 37q-14 2 -14 11t14 9q53 0 95 35q174 145 444 387t403 399q16 18 17 29q0 16 -41 16q-508 0 -588 -77q-8 -8 -14 -8.5t-1 22.5t24 43t40 22q125 10 350 15l422 8q18 0 18.5 -10.5t-19.5 -13.5t-364 -320
q-345 -318 -540 -524q-10 -9 -10 -21t18 -18q258 -80 607 -133q53 -8 108 -9q135 0 223 62q111 78 142 221q2 12 9 12t7 -7v-9q-29 -133 -107 -223t-194 -90z" />
    <glyph glyph-name="bracketleft" unicode="[" horiz-adv-x="692" 
d="M386 -122l-48 2l-215 1q-70 -2 -86 -2q-17 0 -17 8t18.5 34t20.5 28q350 608 564 1036q6 12 6 27.5t3 15.5l128 -4l155 4h3q12 0 12 -8t-12 -8h-72q-66 0 -89.5 -2t-33.5 -21q-276 -483 -563 -1048q-6 -12 -6 -21q0 -18 28 -20h66q70 0 127 2q16 0 16 -12t-5 -12z" />
    <glyph glyph-name="backslash" unicode="\" horiz-adv-x="753" 
d="M848 -319q0 -17 -13 -17t-26 17l-440 1441q0 14 16 15q10 0 25 -21q4 -6 221 -712t217 -723z" />
    <glyph glyph-name="bracketright" unicode="]" horiz-adv-x="720" 
d="M492 -105.5q0 -15.5 -15 -15.5l-127 4l-93 -2q-93 -2 -93 9t12 12h80q78 0 101 2t34 20q276 483 561 1045q6 12 6 20q0 18 -28 21h-25l-141 -6q-16 0 -16 10t16 10h57l242 4q16 0 16 -10q-18 -27 -39 -60q-301 -539 -542 -1036q-6 -12 -6 -27.5z" />
    <glyph glyph-name="asciicircum" unicode="^" horiz-adv-x="819" 
d="M401 543h-61l207 411h51l209 -411h-64l-170 338z" />
    <glyph glyph-name="underscore" unicode="_" horiz-adv-x="1024" 
d="M1024 -102h-1024v102h1024v-102z" />
    <glyph glyph-name="grave" unicode="`" horiz-adv-x="471" 
d="M207 772q12 0 94 -240v-4q0 -4 -3 -4t-56 96t-55 115q-1 17 7 27t13 10z" />
    <glyph glyph-name="a" unicode="a" horiz-adv-x="518" 
d="M154 66q0 -14 12 -15q8 0 22 10q88 66 193 240q23 39 68 117h-3q-61 -4 -108 -43q-123 -104 -180 -283q-4 -12 -4 -26zM406 12q16 0 30 6q154 63 287 265q6 8 11 8t5 -6t-4 -11q-59 -86 -155 -176q-123 -111 -199 -110q-78 0 -78 92q0 37 19 88q-127 -152 -197 -152
q-43 0 -43 47q0 20 10 52q66 188 225 276q81 43 142 43q31 51 84 51q-4 -8 -29 -53q53 -6 55 -14t-4 -8l-59 6q-22 -41 -82 -169q-110 -235 -18 -235z" />
    <glyph glyph-name="b" unicode="b" horiz-adv-x="544" 
d="M416 326l-13 66q-1 8 9 18t29 30.5t27 20.5q7 0 7 -15v-16q0 -55 41.5 -92t99.5 -37t118 26l61 25q6 0 6 -5t-8 -9q-135 -74 -223 -74t-117 55q-2 -143 -88 -245q-78 -88 -156 -88t-78 93t131 329q313 561 569 800q186 174 293 174q78 0 78 -82q0 -47 -16 -47q-8 -1 -8 5
t2 10v2q0 37 -78 37h-19q-121 -6 -238.5 -110.5t-295.5 -401.5q-281 -465 -334 -689q-6 -27 -6 -38q0 -55 37 -55.5t82 57.5q86 109 88 254v2z" />
    <glyph glyph-name="c" unicode="c" horiz-adv-x="417" 
d="M641 287q0 -4 -6 -13q-170 -207 -316 -266q-66 -27 -110 -26q-109 0 -109 98q0 35 19 80q84 207 272 286q25 10 39 11q47 0 72 -56q4 -10 4 -17t-6 -12t-27.5 -25.5t-28 -20.5t-6.5 8v4q2 10 2 16q0 54 -70 54t-139 -136q-37 -74 -45 -147v-23q0 -86 78 -86t182 88
t179 181q4 6 10 6t6 -4z" />
    <glyph glyph-name="d" unicode="d" horiz-adv-x="567" 
d="M170 88q0 -14 9 -14t20 8q86 72 202 221q49 66 74 117q-102 -4 -176 -94q-129 -156 -129 -238zM1350 1309q0 -6 -12.5 -27.5t-15.5 -31.5t-10 -11q-7 0 -35 10.5t-50 10.5q-72 0 -125 -35q-94 -61 -213 -234q-340 -489 -506 -907q-23 -57 -23 -103q0 -47 38 -47t91 33
q135 82 271 303q4 6 9 6t5 -5t-2 -9q-135 -219 -272 -309q-68 -45 -119 -45q-76 0 -76 94q0 70 82 254q-51 -63 -166 -182q-55 -49 -98 -49t-43 43t33 96q147 242 376 282q178 322 365 553q180 227 332 299q64 31 114 31t50 -20z" />
    <glyph glyph-name="e" unicode="e" horiz-adv-x="419" 
d="M393 395q0 27 -24.5 27t-62.5 -35t-79 -106q166 36 166 114zM606 248q6 0 6 -5t-4 -10q-78 -98 -196 -177t-220 -79t-102 86q0 104 76 207t138 139q62 35 114 35t51 -36q0 -47 -115 -99q-59 -27 -135 -43q-47 -90 -47 -171t76 -81q25 0 55 9q158 41 293 219q4 6 10 6z
" />
    <glyph glyph-name="f" unicode="f" horiz-adv-x="391" 
d="M365 428l269 -2q20 0 21 -6q0 -12 -11 -12l-286 -5h-4q-104 -199 -192 -354q-178 -315 -383 -577q-274 -352 -526 -527.5t-470 -175.5q-86 0 -139 35q-66 41 -82 127v6q0 8 5 8t8 -12q10 -72 69 -108t137 -35q221 0 474 180t483 508q146 212 302 502t228 421
q-62 2 -116 -3t-56 -7q-6 0 -6 6q0 29 111 29h24q16 -2 23 -2h33q213 383 377 632t292 358q127 109 232 112h8q48 0 70 -14t22 -25v-14q-14 -70 -18 -164q0 -9 -8 -9t-7 7v2l6 59q0 74 -116 76h-15q-82 0 -153 -51q-117 -84 -219 -240t-308 -571q-6 -12 -79 -154z" />
    <glyph glyph-name="g" unicode="g" horiz-adv-x="501" 
d="M455 428q-68 0 -101 -27q-137 -113 -192 -335q-4 -16 -4 -26t11 -11q11 0 36 26q139 150 270 371q-18 2 -20 2zM610 547q0 -18 -10 -37q-94 -178 -276 -492q-125 -209 -351 -589q-147 -248 -272 -361q-168 -147 -378 -147t-323.5 96t-113.5 225q0 44 9 68t14 24t6 -6v-6
q-25 -78 0 -152q25 -75 108.5 -142.5t235.5 -67.5q445 0 833 733q70 133 140 267t137 261q-49 -63 -160 -190q-51 -53 -92 -54q-43 0 -43 52q0 25 12 59q35 100 144.5 234.5t238.5 134.5q12 0 23 -2l69 118q14 27 27 27q22 0 22 -53z" />
    <glyph glyph-name="h" unicode="h" horiz-adv-x="557" 
d="M1431 1270q-5 0 -6 6q-4 78 -82 119q-113 60 -266 -11q-154 -70 -315 -276q-236 -301 -481 -801q109 100 206 142q19 8 35 8q35 0 -2 -51q-92 -129 -145 -279q-12 -35 -13 -59q0 -66 67 -66t179 107q86 78 146 163q2 4 7 4t5 -5t-4 -9q-121 -168 -252 -248
q-94 -57 -156 -57q-72 0 -71 74q0 57 53 155q54 98 74 146t20 52t-6 4.5t-25 -11.5q-90 -57 -161 -156q-33 -69 -77 -153t-73 -84q-37 0 -37 24q0 10 6 23q133 246 333 562.5t370 542.5t309 304q102 57 178 57q190 0 197 -147q2 -32 -3 -56t-10 -24z" />
    <glyph glyph-name="i" unicode="i" horiz-adv-x="370" 
d="M580 270q0 -6 -5 -10q-101 -128 -207 -198t-190 -70t-84 69q0 33 41 124t127 214q27 39 62 39q14 0 14 -10t-6 -20q-111 -172 -148 -306q-6 -23 -6 -34q0 -48 45 -48t96 29q145 80 248 221q4 6 8.5 6t4.5 -6zM456.5 752q26.5 0 26.5 -26t-22.5 -50.5t-47 -24.5t-24.5 26
t20.5 50.5t47 24.5z" />
    <glyph glyph-name="j" unicode="j" horiz-adv-x="401" 
d="M-354 -717q-21 0 -21 55q0 12 8 25q39 57 112 113t126 149q154 274 369 737q8 18 8 29q0 18 -17 19l-71 -15q-8 0 -8 8.5t10 10.5q94 16 130 32t46 17q20 0 20 -25t-258 -501q-2 -2 -227 -369q129 110 319 282q332 301 332 445q0 19 -16 53q0 4 5 4t9 -4q27 -22 27 -90
q0 -97 -121 -209q-166 -158 -537 -495q-57 -49 -110 -130t-123 -137q-6 -4 -12 -4zM440.5 752q26.5 0 26.5 -26t-22.5 -50.5t-47 -24.5t-24.5 26t20.5 50.5t47 24.5z" />
    <glyph glyph-name="k" unicode="k" horiz-adv-x="620" 
d="M328 303q0 14 17 21.5t29 15.5t21 8q8 0 11 -8q90 78 164 133t79 55q23 0 23 -26q0 -12 -21 -19q-84 -29 -248 -168q-2 -11 -2 -29t17 -98q37 -174 114 -174q62 0 144 88t112 132t35 45q8 0 8 -9q-1 -35 -113 -144t-160 -133t-83 -24q-63 0 -100 101q-20 55 -41 184
q-170 -158 -242 -279q-6 -10 -13 -10q-7 1 -23 17t-16 26t16 34t96 169q280 508 548 819q215 248 402 248q39 0 74.5 -20t35.5 -48t-11 -54t-14 -44t-9.5 -18t-6.5 8l5 22q0 35 -33 65t-81 30q-158 0 -294 -143q-137 -143 -302 -417t-302 -526q-6 -12 -2 -12l168 153
q0 6 -2 25v4z" />
    <glyph glyph-name="l" unicode="l" horiz-adv-x="419" 
d="M965 1264q0 33 -25 32q-20 0 -45 -24q-94 -94 -252 -344q-88 -135 -260 -406q33 18 68 43q293 211 448 506q66 123 66 193zM1059 1317q0 -68 -90 -215q-215 -352 -514 -555q-31 -18 -88 -51q-195 -322 -195 -426q0 -66 59 -66q53 0 140 47q131 72 241 221q6 8 12 8t5 -4
q0 -4 -6 -12q-129 -156 -241 -223t-194 -68q-98 0 -98 93q0 55 41 131q68 113 213 360q88 158 281 467q86 127 166 195q160 135 231 135q37 0 37 -37z" />
    <glyph glyph-name="m" unicode="m" horiz-adv-x="729" 
d="M451 391q27 0 26 -29q0 -20 -31 -80l-30 -61q0 -2 3 -2t35 37q32 36 107 92q74 56 103 55q33 0 32 -30q0 -10 -18 -44q-86 -158 -119 -272q-6 -20 -6 -37q0 -41 35 -40q16 0 39 10q127 57 256 219q8 10 13 10t5 -7t-6 -13q-211 -244 -336 -244q-76 0 -76 74q0 29 13 59
q37 68 104 215q4 9 4 21t-8 12t-47 -22t-95 -84q-56 -60 -76 -96t-54 -91q-10 -12 -20 -12t-17.5 10t-7.5 23t8 26q100 156 100 217q0 12 -6 12t-14 -6q-127 -90 -242 -274q-25 -41 -37 -41q-20 0 -20 30t5 39t201 349q10 18 20 18t20 -8t10 -25t-78 -165l-2 -7
q162 162 207 162z" />
    <glyph glyph-name="n" unicode="n" horiz-adv-x="542" 
d="M747.5 280q6.5 0 6.5 -5t-4 -11q-121 -168 -275 -256q-84 -49 -145 -49t-62 59q0 46 60 148t76 144q14 42 14 47t-5 5t-7 -2q-106 -70 -189 -163q-41 -74 -131 -215q-8 -10 -14 -11q-4 0 -14 19t-11 34q-1 16 23 50t94 145q37 74 110 215q6 10 16 10t22 -10t12 -17
t-17 -36t-61 -129q125 115 256 197q6 4 12 4q25 0 25 -23q0 -10 -11 -24q-119 -176 -168 -314q-8 -23 -8 -39q0 -51 49 -51q27 0 58 16q164 86 280 258q2 4 8.5 4z" />
    <glyph glyph-name="o" unicode="o" 
d="M426 397v19q-8 2 -10 2q-88 -2 -189 -174q-70 -119 -67 -197q0 -39 28 -39q59 0 135 115t111 203q-8 31 -8 71zM774 346q0 -39 -79 -85t-122 -46q-82 0 -122 70q-120 -234 -240 -291q-35 -16 -61 -17q-59 0 -60 80q-2 113 121 260q57 69 121 93t96 26q10 59 41 64
q8 2 45 12q10 0 10 -8t-9 -13t-15 -51t-6 -73q0 -131 94 -131t174 110q4 6 8 6t4 -6z" />
    <glyph glyph-name="p" unicode="p" horiz-adv-x="450" 
d="M406 355q0 32 -25 32q-35 0 -91 -54t-78 -87t-136 -230q215 96 301 254q29 53 29 85zM690 315q6 0 6 -4t-4 -8q-180 -229 -491 -301q-10 -2 -150 -29q-72 -121 -221 -397q-90 -180 -279 -530q-27 -45 -96 -62q-12 -2 -93 -26.5t-86 -24.5t-5 7t10 11q92 37 147.5 87.5
t128 162t461.5 772.5q-12 6 -12 23q0 10 35 18l94 154q169 305 266 426q19 24 61 24t42 -6t-6 -12q-147 -141 -238 -278q119 129 182 129q47 0 47 -54q0 -14 -6 -32q-72 -213 -356 -345q358 43 553 291q4 4 10 4z" />
    <glyph glyph-name="q" unicode="q" horiz-adv-x="534" 
d="M127 40q0 -17 15 -17t48 20q104 63 234 287q14 27 47 88q-39 0 -85 -18t-125 -117t-107 -163t-27 -80zM659 694q18 0 19 -18q0 -2 -34 -66t-116 -182q74 -18 74 -72q0 -10 -6 -10t-20 27t-60 39q-10 -16 -96 -136t-236 -365q-458 -755 -454 -872q0 -31 22 -30
q37 0 103 76q147 169 375 495t518 727q2 4 8 4t6 -7q0 -6 -48 -70t-370 -521l-221 -315q-137 -190 -251 -320t-202 -131q-43 0 -43 48t54 141q113 193 595 962q-92 -104 -163 -104q-51 0 -52 55q0 31 17 68q47 100 141 191t180 116q39 10 84 10q133 227 162 254q6 6 14 6z
" />
    <glyph glyph-name="r" unicode="r" horiz-adv-x="434" 
d="M559 418q0 -8 -11.5 -20t-23.5 -34t-17 -22t-7 4q-20 35 -70 35t-103 -49q-52 -49 -100.5 -120t-144.5 -216q-4 -6 -12 -6q-46 0 4 86q26 44 90 160l110 194q8 16 19 16q33 0 33 -36q0 -10 -30 -60q-30 -51 -25 -51q5 -1 29 25t96 74t117.5 48.5t45.5 -28.5z" />
    <glyph glyph-name="s" unicode="s" horiz-adv-x="385" 
d="M162 -39q68 1 106 59t47 138q2 16 11 170q4 59 74 113t100 54.5t30 -22.5q0 -35 -30 -35l-41 8q-43 0 -53 -49q-4 -21 -12 -169t-87 -218q-80 -70 -168 -69q-43 -1 -93 29t-50 62t45 68q4 4 9 4t5 -4l-8 -30q0 -18 23 -64q24 -46 92 -45z" />
    <glyph glyph-name="t" unicode="t" horiz-adv-x="407" 
d="M568 762q18 0 18 -7t-6 -10q-47 -14 -68 -43q-100 -139 -176 -278q80 0 235 4q10 -6 11 -8q0 -12 -11 -12q-164 -4 -249 -13q-111 -211 -111 -290t68 -78q59 0 163 61q4 2 10 2t5 -5q0 -5 -6 -9q-135 -86 -229 -86t-95 94q0 78 127 307q-33 -2 -96 -6q-18 0 -19 10
q0 12 13.5 20.5t35.5 8.5h84q70 123 156 252q23 35 51 49q71 37 89 37z" />
    <glyph glyph-name="u" unicode="u" 
d="M746 260q6 0 6 -6t-4 -10q-137 -190 -263 -262q-68 -39 -116 -39q-70 0 -70 75q0 41 20 93q-27 -37 -69 -73t-84 -36q-53 0 -53 59q0 25 12 60q51 143 156 303q13 18 39 18t26 -26q0 -10 -34 -66t-134 -248q-8 -20 -8 -47t24.5 -26.5t57.5 32.5q72 72 142 210t85 140
q14 1 25.5 -20.5t11.5 -42.5t-34 -65t-62 -80q-68 -100 -68 -195q0 -45 37 -45q25 0 79 27t134 105.5t135 158.5q3 6 9 6z" />
    <glyph glyph-name="v" unicode="v" horiz-adv-x="552" 
d="M244 22q0 -5 16 3q170 90 242 235q58 114 25 182t-63 72t-30 10q0 16 58 16t88 -61q12 -26 12 -62t-27 -91q-123 -260 -377 -404q-10 -6 -19 -6t-29.5 15.5t-20.5 25.5q0 2 55 28.5t55 88.5q0 35 -19.5 98.5t-19.5 97.5t14 54t45.5 44.5t41.5 24.5t10 -5t-6 -9
q-35 -29 -35 -80l21 -139q2 -66 -31 -123q-6 -10 -6 -15z" />
    <glyph glyph-name="w" unicode="w" horiz-adv-x="714" 
d="M1000 381q6 0 6 -5t-5 -9q-100 -117 -200 -117q-74 0 -123 63q-57 -207 -176 -282q-51 -33 -94 -33q-76 0 -76 90q0 33 10 68q-117 -152 -197 -152q-47 0 -47 57q0 31 14.5 71t102.5 202q43 80 127 108h6q6 0 6 -5t-4 -9q-123 -141 -166 -307q-6 -25 -6 -47t20 -21
q20 0 70 44q51 44 115 151q61 143 94 143t33 -33q0 -16 -12 -34q-78 -121 -105 -215q-6 -20 -6 -37q0 -47 43 -47q31 1 74 31t89 120t54 191q-20 49 -20 84q0 49 49 49q14 0 14 -13q12 -219 133 -219q78 0 168 109q3 4 9 4z" />
    <glyph glyph-name="x" unicode="x" horiz-adv-x="561" 
d="M733 191q0 -3 -4 -9q-98 -143 -218 -218t-192 -75q-113 0 -126 146q-199 -215 -314 -414q-39 -67 -47 -105t-14 -38t-22 36q-15 36 -15 44t63 100t346 401v21q0 148 66 307q12 31 35 44t37 21t18 9q4 0 4 -6t-2 -9q-76 -137 -82 -307q174 184 314 312q6 6 12 5.5t6 -8.5
v-10q-6 -27 -20 -39q-178 -147 -314 -286v-13q0 -166 115 -166q49 0 113 37q129 76 227 219q4 6 9 5t5 -4z" />
    <glyph glyph-name="y" unicode="y" horiz-adv-x="475" 
d="M168 80q0 -23 20 -23q8 1 43 15q55 23 95 97q130 240 157 271t32 31t5 -4q0 -3 10 -21t9 -26q0 -8 -27 -58q-26 -50 -98 -136q-72 -85 -206 -304q-134 -218 -309 -450q-276 -364 -483 -365q-207 0 -207 160q0 66 13 65q4 0 4 -6q4 -78 84 -119q114 -60 266 9
q152 70 315 280q131 168 217.5 308t130.5 210t44 72h-2q2 0 -46.5 -27.5t-82.5 -27.5q-57 0 -58 47q0 59 105 207q4 4 53 82q14 23 29 22l38 8q9 0 9 -5q0 -6 -18 -32q-142 -216 -142 -280z" />
    <glyph glyph-name="z" unicode="z" horiz-adv-x="532" 
d="M383 334q53 0 95 28t71 56q31 26 41 26t10 -11t-34 -35t-120 -99q-87 -76 -288 -217q-10 -8 -10.5 -12t10.5 -11q216 -131 330 -197t202 -102t164 -36q184 0 289 204q4 6 9 6t5 -6v-4q-6 -33 -27 -63q-104 -160 -321 -160q-61 0 -129 16q-280 65 -598 312q-8 6 -14 5.5
t-42 -24.5t-45 -24t-9 11t8 15q188 90 456 305q4 5 4 9t-6 4t-51 -13.5t-70 -13.5q-84 0 -84 64q0 23 26 61.5t41 38.5t15 -10l-12 -49q0 -74 84 -74z" />
    <glyph glyph-name="braceleft" unicode="{" horiz-adv-x="542" 
d="M334 486q0 -6 4 -7q47 -25 47 -77q1 -52 -55 -158t-99 -183q-49 -104 -49 -163q0 -88 74 -88q12 0 12 -8.5t-14 -8.5q-72 2 -110 42t-38 92q0 51 50 133t128 198q76 116 76 161q0 44 -65 56h-10q12 0 -28 -6t-46 -6q-25 0 -25 16q0 4 8.5 14.5t24.5 10.5l55 -8
q114 0 230 198q70 121 94 159t72 93q68 76 223 76h16q14 -2 15 -10v-4q-2 -6 -13 -7l-32 7q-23 0 -53 -12q-62 -24 -259 -300q-115 -162 -225 -202q-8 -2 -8 -8z" />
    <glyph glyph-name="bar" unicode="|" horiz-adv-x="454" 
d="M303 -512v2048h62v-2048h-62z" />
    <glyph glyph-name="braceright" unicode="}" horiz-adv-x="542" 
d="M606 438q-57 0 -84 -18q-72 -50 -162 -228t-140 -235t-137 -111t-157 -55q-10 0 -10 6t12 8q151 25 299 281q27 50 97 164t192 186q8 4 8 10.5t-10 10.5q-43 18 -43 68t41 122q34 55 90 147q113 188 2 205q-14 1 -14 11t22 10t56 -42t34 -102t-96 -208t-96 -172t20 -25
l88 14q14 0 15 -16q0 -31 -27 -31z" />
    <glyph glyph-name="asciitilde" unicode="~" horiz-adv-x="819" 
d="M678 219q-49 0 -119 39t-128 39t-91 -84l-41 41q51 96 141 96q45 0 132 -38t108 -38q45 0 98 82l41 -41q-72 -96 -141 -96z" />
    <glyph glyph-name="nonbreakingspace" unicode="&#xa0;" horiz-adv-x="411" 
 />
    <glyph glyph-name="exclamdown" unicode="&#xa1;" horiz-adv-x="450" 
d="M-8 -322h6q23 0 43 17q129 106 340 588q2 6 10 6t8 -8l-2 -2q-127 -365 -233 -568q-34 -63 -106 -63t-72 22q0 8 6 8zM481 457q0 -82 -61 -82q-20 0 -31.5 15.5t-11.5 39.5t19.5 44t45.5 20q39 0 39 -37z" />
    <glyph glyph-name="cent" unicode="&#xa2;" horiz-adv-x="696" 
d="M562 674q-114 0 -250 -214q-84 -132 -85 -251q0 -78 74 -92q166 295 332 547q-29 10 -71 10zM846 940q0 -28 -48 -88t-102 -133q74 -16 86 -82q4 -18 -11 -24.5t-30.5 -27t-19.5 -20.5t-6 15q-8 47 -64 75q-172 -250 -332 -540q154 -11 400 235q6 6 10 6q4 -2 4 -6
t-4 -10q-84 -121 -293 -219q-74 -35 -137 -45q-190 -349 -188 -434q0 -6 3 -20t-5 -15q-9 -1 -19 23t-10 51t196 391h-24q-35 0 -64 8q-55 16 -55 89q1 73 61 181t123.5 181t153.5 132.5t184 59.5h19q20 33 63 94l60 84q33 45 41 45t8 -6z" />
    <glyph glyph-name="sterling" unicode="&#xa3;" horiz-adv-x="944" 
d="M246 436q0 10 14 10h4l41 -2h43q33 2 43 2h25q141 261 255.5 337.5t210.5 76.5t97 -39q0 -14 -10 -41t-12.5 -36t-8.5 -9q-4 2 -6 10q-8 33 -51 49t-93 17q-135 0 -245 -199q-29 -53 -96 -166q86 4 272 13h4q33 2 33 -25q0 -12 -14 -12h-17l-223 10q-8 0 -66 -2
q-104 -166 -202 -254q-2 -2 -2 -5t4 -3h2q38 8 94 8t99 -17t190 -116q85 -57 153 -57t138 69q31 31 36 47t11 16.5t6 -4.5v-8q-10 -26 -51 -70q-42 -44 -98 -81t-97 -37q-86 0 -217 117q-28 25 -90 75t-150 50q-40 0 -82 -31t-69 -64.5t-84 -99.5q-6 -6 -12 -6q-21 1 -21 23
t12 34q45 47 177 140q106 76 188 225l25 47l-121 -10q-39 0 -39 18z" />
    <glyph glyph-name="currency" unicode="&#xa4;" horiz-adv-x="796" 
d="M617 141q-118 0 -209 76l-74 -76l-51 52l73 75q-74 90 -73.5 209t73.5 209l-73 76l51 51l74 -76q92 76 210 76t209 -76l74 76l51 -51l-73 -76q74 -86 73.5 -209t-73.5 -209l73 -75l-51 -52l-74 76q-92 -76 -210 -76zM891 477q0 115 -80 199t-194 84t-193.5 -84
t-79.5 -199t80 -198.5t194 -83.5t193.5 83.5t79.5 198.5z" />
    <glyph glyph-name="yen" unicode="&#xa5;" horiz-adv-x="839" 
d="M586 27q14 0 14 -15q0 -10 -12 -10h-2l-88 4q-72 0 -147 -11q-74 -11 -105 -11t-31 14q-1 14 15 14h34q16 -2 27 -2q53 0 88 53q51 78 86 151t35 79t-15 6h-2q-61 0 -121 -8t-67 -8q-8 0 -8 12.5t48 14.5q48 3 165 9q23 0 49 82v5q0 6 -10 6h-2q-53 0 -158 -15h-8
q-12 0 -13 9q0 23 35 22h31q76 0 119 4q18 2 24 23q42 131 2 229q-47 123 -182 123q-51 0 -100 -23q-68 -31 -103 -98q-4 -8 -10 -8t-6 12t46 56t69 59q82 49 177 49t150.5 -57t55.5 -139t-39 -199q0 -2 -1 -7t3 -5.5t14 10.5q205 213 406 366q51 39 98 76t53 37t22 -12
t17 -19q0 -6 -14 -16q-78 -49 -230 -152q-170 -123 -333 -286q-15 -15 2 -15l161 6q12 0 13 -8q0 -14 -21 -14q-109 0 -174 -2q-14 0 -25 -21l-30 -67q0 -4 10 -4h2l170 6q12 0 12 -8q0 -14 -16 -15q-90 0 -174 -4q-16 0 -23 -14q-39 -82 -77 -162t-39 -86q0 -20 61 -20
l70 4h2z" />
    <glyph glyph-name="brokenbar" unicode="&#xa6;" horiz-adv-x="454" 
d="M426 666v716h61v-716h-61zM426 -358v716h61v-716h-61z" />
    <glyph glyph-name="section" unicode="&#xa7;" horiz-adv-x="616" 
d="M514 220q0 58 -25 106q-31 40 -78 110t-55 129q-33 -12 -63 -52t-11 -91q18 -51 74 -127q56 -77 76 -105t27 -77q55 49 55 107zM702 772q0 -12 -16 -48t-24.5 -36t-8.5 10v2q2 6 2 15q0 29 -34.5 46t-65.5 17q-78 0 -118 -53t-40 -107t70 -159q20 -29 55 -88
q25 -49 25 -101q0 -98 -86 -178q0 -55 -25 -106q-39 -82 -132 -134.5t-187 -52.5h-6q-80 0 -130.5 50.5t-54.5 127.5v17q0 74 16 104t15 6v-4q-10 -41 -10 -67q0 -84 75 -133t162 -50q162 0 217 123q12 27 13 60q0 74 -98.5 185.5t-98.5 174.5q0 37 19 74q43 84 120 119
q4 45 23 84q53 109 164 143q39 12 67 12q92 0 92 -53z" />
    <glyph glyph-name="dieresis" unicode="&#xa8;" horiz-adv-x="471" 
d="M184.5 752q26.5 0 26.5 -26t-22.5 -50.5t-47 -24.5t-24.5 26t20.5 50.5t47 24.5zM358 714q0 -26 -22.5 -50.5t-47 -24.5t-24.5 26t20.5 50t47 24.5t26.5 -25.5z" />
    <glyph glyph-name="copyright" unicode="&#xa9;" horiz-adv-x="1161" 
d="M835 723q-122 0 -217.5 -119t-95.5 -274q0 -86 45 -135.5t115 -49.5q70 -1 108 27t89 92l12 -55q-93 -88 -203 -88t-166.5 59.5t-56.5 161.5q0 168 109.5 288t269.5 120t180 -132l-55 -28q-12 133 -134 133zM1204 565q0 164 -92 251t-254 87q-238 0 -405.5 -179
t-167.5 -419q0 -143 101 -239.5t253 -96.5q249 0 407 172t158 424zM1257 559q0 -250 -191.5 -431t-455.5 -181q-170 0 -275.5 97t-105.5 257q0 248 192.5 434.5t448.5 186.5q182 0 284.5 -96.5t102.5 -266.5z" />
    <glyph glyph-name="ordfeminine" unicode="&#xaa;" horiz-adv-x="550" 
d="M254 454q0 -18 13 -18t38 23q137 131 221 291q-61 0 -144 -76t-122 -185q-6 -18 -6 -35zM639 833.5q0 -4.5 -4 -10.5q-121 -186 -158 -366q-4 -20 -4 -41q0 -63 49 -64q26 0 76 24t92 73q4 3 10 3t5 -6q1 -14 -55 -54q-126 -91 -199 -91q-55 0 -56 68q0 96 82 262
q-127 -176 -225 -236q-31 -18 -57 -18q-35 0 -35 37q0 27 18 61q72 135 223 240q80 55 136 55q55 117 77 117q10 0 10.5 -13.5t7.5 -24.5t7 -15.5z" />
    <glyph glyph-name="guillemotleft" unicode="&#xab;" horiz-adv-x="636" 
d="M209 201q0 10 9 15q9 6 172 136t170 130t7 -11v-4q-2 -6 -51 -41t-229 -178q-19 -14 -19 -41t41 -129t43 -111q0 -4 -33 -10t-31 -8q-8 2 -20 47t-59 201v4zM690 450q0 -9 -6 -14q-92 -72 -223 -180q-12 -10 -12 -20q0 -39 88 -238q2 -4 2 -9t-28 -17q-28 -11 -34 -11
t-11 24q-5 23 -42 115t-37 106t10 21q77 59 175 145t108 86.5t10 -8.5zM288 -51h3h-3z" />
    <glyph glyph-name="logicalnot" unicode="&#xac;" horiz-adv-x="1460" 
d="M31 477v113h1362v-590h-113v477h-1249z" />
    <glyph glyph-name="minus" unicode="&#xad;" horiz-adv-x="475" 
d="M231 291l95 -2l219 4q22 0 22 -15t-26 -16l-314 -2q-20 0 -20 12q0 18 24 19z" />
    <glyph glyph-name="minus" unicode="&#x2212;" horiz-adv-x="475" 
d="M231 291l95 -2l219 4q22 0 22 -15t-26 -16l-314 -2q-20 0 -20 12q0 18 24 19z" />
    <glyph glyph-name="registered" unicode="&#xae;" horiz-adv-x="839" 
d="M666 834l51 2q104 0 104 -68q0 -100 -153 -119q8 -10 118 -170q-23 0 -41 -10q-49 102 -120 188l2 5h18q57 0 97 32.5t40 79.5t-67 47h-17q-61 -109 -170 -348q-27 0 -45 -6q106 199 183 367zM958 694q0 219 -219 219q-147 0 -254.5 -105.5t-107.5 -248.5
q0 -86 63.5 -141.5t161.5 -55.5q147 0 251.5 97.5t104.5 234.5zM991 711q0 -150 -118.5 -256.5t-284.5 -106.5q-113 0 -179.5 57.5t-66.5 153.5q0 150 120 259.5t281 109.5q248 0 248 -217z" />
    <glyph glyph-name="macron" unicode="&#xaf;" horiz-adv-x="471" 
d="M346 686l-6 -31l-180 -4l10 31z" />
    <glyph glyph-name="macron" unicode="&#x2c9;" horiz-adv-x="471" 
d="M346 686l-6 -31l-180 -4l10 31z" />
    <glyph glyph-name="degree" unicode="&#xb0;" horiz-adv-x="466" 
d="M606 727q0 41 -26.5 67.5t-67.5 26.5t-71.5 -30.5t-30.5 -71.5t26.5 -67.5t67.5 -26.5t71.5 30.5t30.5 71.5zM633 727q0 -51 -39 -89t-90 -38t-86 34t-35 85t39 89t90 38t86 -34t35 -85z" />
    <glyph glyph-name="plusminus" unicode="&#xb1;" horiz-adv-x="819" 
d="M274 0v61h570v-61h-570zM528 365v204h62v-204h254v-62h-254v-205h-62v205h-254v62h254z" />
    <glyph glyph-name="twosuperior" unicode="&#xb2;" horiz-adv-x="657" 
d="M748 518q6 0 6 -5t-4 -9q-67 -61 -162 -64q-32 0 -122.5 29t-99.5 29t-37 -20t-32 -21q-4 0 -4 5q-1 6 21 20t97 62t131 96t56 95q0 57 -61 58q-45 0 -74 -29q-4 -4 -9 -4t-5 7t34 24l35 16q31 14 64 14q86 0 86 -65q0 -41 -58 -86q-121 -92 -174 -125l-2 -2q0 -4 4 -6
q137 -63 224 -64q49 0 77 41q3 4 9 4z" />
    <glyph glyph-name="threesuperior" unicode="&#xb3;" horiz-adv-x="657" 
d="M598 821q74 0 74 -59q0 -43 -78 -94q-14 -10 -31 -21q0 -2 4 -2q33 -2 54.5 -27.5t21.5 -70.5t-67 -113t-150 -70q-84 -2 -84 70q0 31 10 31q4 -2 4 -10q0 -66 86 -66h9q61 4 98 41t37 74q0 97 -74 100h-4q-12 0 -24.5 -8t-17.5 -8t-5 5t6 9q145 79 145 143q0 51 -51 52
q-25 0 -52 -16l-28 -15q-4 0 -4 4q0 23 88 47q14 4 33 4z" />
    <glyph glyph-name="acute" unicode="&#xb4;" horiz-adv-x="471" 
d="M403 805q0 -6 -6 -10q-121 -92 -227 -166t-110.5 -74t-4.5 4t322 262q6 4 10 4q16 0 16 -20z" />
    <glyph glyph-name="mu" unicode="&#xb5;" horiz-adv-x="1179" 
d="M125 1024h176v-682q0 -170 107 -217q90 -38 167 -2q111 51 150 139v762h176v-786q0 -96 39 -136q40 -40 66 -39q26 -1 56 17t40 56t18 71h41q-18 -78 -37 -111q-33 -66 -94 -98q-62 -32 -120 -33q-58 0 -102 33t-60 78q-2 8 -21 90q-51 -73 -138 -137q-87 -63 -198 -64
q-59 0 -121 41q-37 29 -71 57v-47q1 -70 33 -165t32 -164q0 -68 -29.5 -106t-68.5 -38t-68.5 38.5t-29.5 86.5t5 78.5t28 115.5t24 154v1008z" />
    <glyph glyph-name="mu" unicode="&#x3bc;" horiz-adv-x="1179" 
d="M125 1024h176v-682q0 -170 107 -217q90 -38 167 -2q111 51 150 139v762h176v-786q0 -96 39 -136q40 -40 66 -39q26 -1 56 17t40 56t18 71h41q-18 -78 -37 -111q-33 -66 -94 -98q-62 -32 -120 -33q-58 0 -102 33t-60 78q-2 8 -21 90q-51 -73 -138 -137q-87 -63 -198 -64
q-59 0 -121 41q-37 29 -71 57v-47q1 -70 33 -165t32 -164q0 -68 -29.5 -106t-68.5 -38t-68.5 38.5t-29.5 86.5t5 78.5t28 115.5t24 154v1008z" />
    <glyph glyph-name="paragraph" unicode="&#xb6;" horiz-adv-x="1024" 
d="M1100 586q0 31 -35 69q-2 -6 -25 -49l-28 -55h53q35 4 35 35zM684 365q-19 -19 -104 -70q37 -43 57 -98q84 58 119 61q-23 -40 -59 -118q-35 -78 -35 -100t10 -38l311 537q-6 -4 -18 -9q-49 -23 -89 -82t-114 -180q-37 10 -78 97zM1157 602q0 -63 -121 -63h-30l-537 -920
q-39 -68 -39 -103t6 -55q-27 39 -26 80q0 2 1 7t1 10q-33 -37 -84 -37t-66 20q20 -6 35 -6q63 0 137 98.5t146 216.5l88 146q-12 -2 -78 -2t-125 22q-104 39 -105 166q0 78 44 162q89 170 364 197q102 10 205 10h18q41 68 56 141q31 14 67 51q-4 -11 -4 -29t23 -55l18 -30
q6 -10 6 -27z" />
    <glyph glyph-name="periodcentered" unicode="&#xb7;" horiz-adv-x="450" 
d="M376 455q36 0 36 -33t-30 -68t-62 -35t-35 31v6q-2 35 26.5 67t64.5 32z" />
    <glyph glyph-name="periodcentered" unicode="&#x2219;" horiz-adv-x="450" 
d="M376 455q36 0 36 -33t-30 -68t-62 -35t-35 31v6q-2 35 26.5 67t64.5 32z" />
    <glyph glyph-name="cedilla" unicode="&#xb8;" horiz-adv-x="471" 
d="M330 -10q8 0 8 -3t-29 -18.5t-41 -24.5t-12 -21.5t33 -27.5t33 -37t-27 -46q-80 -68 -152 -103q-8 -4 -14 -4q-16 0 -16 12l67 31q80 33 80 68q0 12 -14.5 22t-32.5 22t-18 32t48 52t83 46h4z" />
    <glyph glyph-name="onesuperior" unicode="&#xb9;" horiz-adv-x="657" 
d="M469 807q0 6 39 7t176 5q14 0 14 -10l-23 -37q-24 -37 -83 -144t-68 -136q0 -11 50 -9t66 2q15 0 15 -10q0 -16 -38 -12t-94 4t-156 -14h-15q-29 0 -28 14q0 10 32 10h60q29 2 39 19q29 42 93 154t62 130q0 18 -39 19l-86 -4q-16 0 -16 12z" />
    <glyph glyph-name="ordmasculine" unicode="&#xba;" horiz-adv-x="485" 
d="M504 700q0 43 -19 43q-12 0 -28 -12q-170 -125 -170 -307q0 -51 30 -51q18 0 45 18q126 88 142 293v16zM578 731q0 -29 -7 -55q-31 -141 -147 -254q-78 -76 -147 -76t-68 72q0 43 31 102q55 106 192 215q68 53 107 53t39 -57z" />
    <glyph glyph-name="guillemotright" unicode="&#xbb;" horiz-adv-x="636" 
d="M473 230q0 -9 -8 -15q-158 -121 -293 -260q-16 -16 -32.5 -16t-16.5 8t12 18q129 98 260 219q22 19 6 41q-133 217 -133 223.5t17 9.5t24 6t17 3t18 -14q39 -72 125 -207q4 -7 4 -16zM518 469q12 0 19 -16q37 -96 104 -193q8 -12 8 -21t-6 -14q-174 -127 -287 -239
q-8 -8 -16 -9q-10 -1 -10 9t10 18q80 70 240 201q4 4 4 5l-121 230q0 18 49 29h6z" />
    <glyph glyph-name="onequarter" unicode="&#xbc;" horiz-adv-x="1062" 
d="M668 180q0 -4 28 -3t113 3q45 92 92 176q-123 -78 -227 -168q-6 -4 -6 -8zM592 140q0 9 8 16q119 90 243 175t131 86t7 -9q-59 -96 -121 -228h84q60 -2 60 -18q0 -10 -9.5 -34t-17.5 -24q-4 2 -4 7l4 14q0 8 -8 10q-57 8 -125 8q-51 -111 -51 -135l4 -20q0 -6 -9 -6
q-10 0 -26 20t-16 32t45 107l-185 -10q-14 0 -14 9zM1124 893.5q0 -10.5 -20 -31.5q-461 -471 -887 -952q-23 -25 -34 -25q-11 1 -11 15t21 37l880 944q19 23 35 23t16 -10.5zM274 477h62q29 2 39 19q29 42 93 154t62 130q-1 28 -118 15q-25 -2 -25 12q0 6 40 7t177 5
q12 0 12 -7t-30 -54q-30 -48 -85 -150q-56 -102 -57 -116q0 -11 50 -9t66 2q15 0 15 -10q0 -16 -38.5 -12t-59.5 4l-205 -14q-31 0 -30 14q0 4 15 7t17 3z" />
    <glyph glyph-name="onehalf" unicode="&#xbd;" horiz-adv-x="1062" 
d="M1009.5 67q6.5 0 6.5 -5t-4 -9q-68 -61 -156 -61t-209 53q-10 4 -14 4q-4 -1 -40 -21t-30 -20q-6 0 -6 6t82 59q82 52 162 111q59 53 59 101q0 59 -59 59q-25 0 -53 -16l-29 -17q-6 0 -6 7t35 24l34 16q27 12 62 13q86 0 86 -66q0 -43 -56 -86q-110 -85 -144 -105
t-34 -22t46 -24t109 -32q63 -11 73 -11q49 0 77 38q2 4 8.5 4zM1124 893.5q0 -10.5 -20 -31.5q-461 -471 -887 -952q-23 -25 -34 -25q-11 1 -11 15t21 37l880 944q19 23 35 23t16 -10.5zM556 485q15 0 15 -11t-26 -11l-72 4h-24q-18 -2 -50 -4t-131 -10q-29 -2 -28 14
q0 10 32 10h60q29 2 39 19q29 42 93 154t62 130q0 18 -39 19l-84 -4q-18 0 -18 12q0 6 10 6h41l164 6q14 0 14 -10l-23 -37q-24 -37 -83 -146t-68 -134q0 -11 50 -9t66 2z" />
    <glyph glyph-name="threequarters" unicode="&#xbe;" horiz-adv-x="1062" 
d="M686 176q0 -4 8 -4h2l123 6q43 92 84 168q-141 -90 -213 -162q-4 -4 -4 -8zM985 127q0 8 -6 8q-57 8 -123 8q-51 -111 -51 -126t4 -25v-4q0 -6 -9 -6q-10 0 -26 20t-16 30.5t45 108.5l-180 -10q-15 0 -15 8t8 15q328 262 369 262q6 0 8 -8l-2 -2q-3 -6 -31 -52t-88 -174
q144 7 144 -18q-14 -55 -27 -58q-8 0 -6 8t2 15zM604 762q0 -43 -78 -94q-14 -10 -30 -21q0 -2 18 -3t38.5 -26.5t20.5 -70.5t-65 -113t-150 -70q-84 -2 -84 70q0 31 11 31q4 -2 4 -10q0 -66 84 -66q57 0 100 35t43 76q0 42 -15 72t-61 32q-12 0 -24.5 -8t-17.5 -8t-5 5t6 9
q72 39 108 73t36 70q0 51 -49 52q-25 0 -51.5 -15.5t-33.5 -15.5t5 12q62 43 126 43t64 -59zM1137 893q0 -10 -21 -31q-461 -471 -887 -952q-23 -25 -33 -25q-10 1 -12 15q0 14 21 37l880 944q20 23 36 23t16 -11z" />
    <glyph glyph-name="questiondown" unicode="&#xbf;" horiz-adv-x="532" 
d="M356 340q24 0 52 -29t28 -75t-28 -56q-70 -27 -123 -61q-190 -123 -240 -230q-20 -45 -20 -96t32.5 -85t82.5 -34t112 36t108 112q4 6 12 6t7 -8l-2 -4q-51 -84 -135 -134t-133 -51q-50 0 -84 13q-88 31 -88 125q0 126 192 268q63 43 184 135q33 31 33 70q0 63 -72 80
q-8 2 -8 10t13 8l36 -2l37 2h4zM569 496q0 -41 -34.5 -65.5t-46.5 -24.5t-14 26q-3 26 -13 35q-10 10 -10 18q0 29 57 47q12 4 20 5q41 0 41 -41z" />
    <glyph glyph-name="Agrave" unicode="&#xc0;" horiz-adv-x="1261" 
d="M1272 819q0 8 -5 8q-26 0 -227 -126t-348 -224q213 -14 414 -14q166 327 166 356zM1258 864q26 28 42 29q16 0 45 -4l113 8q10 0 10 -10q0 -4 -31.5 -12.5t-43.5 -30.5q-219 -375 -355 -692q-23 -53 -22 -84q0 -66 68 -66t169 66q5 4 13 4t8 -5t-10 -12
q-151 -94 -257 -95t-106 79q0 45 51 135t146 272h-39q-248 0 -443 -20q-188 -127 -309 -219t-203 -193q-33 -39 -38 -60t-11 -22q-10 0 -10 15l8 80q-2 23 78 84q188 143 451 319q-17 13 -17 45q0 33 6 33q30 -24 88 -29q215 140 461 287q112 70 138 98zM1266 1241
q12 0 94 -240v-4q0 -4 -3 -4t-59 100t-55 124q0 24 23 24z" />
    <glyph glyph-name="Aacute" unicode="&#xc1;" horiz-adv-x="1261" 
d="M1272 819q0 8 -5 8q-26 0 -227 -126t-348 -224q213 -14 414 -14q166 327 166 356zM1258 864q26 28 42 29q16 0 45 -4l113 8q10 0 10 -10q0 -4 -31.5 -12.5t-43.5 -30.5q-219 -375 -355 -692q-23 -53 -22 -84q0 -66 68 -66t169 66q5 4 13 4t8 -5t-10 -12
q-151 -94 -257 -95t-106 79q0 45 51 135t146 272h-39q-248 0 -443 -20q-188 -127 -309 -219t-203 -193q-33 -39 -38 -60t-11 -22q-10 0 -10 15l8 80q-2 23 78 84q188 143 451 319q-17 13 -17 45q0 33 6 33q30 -24 88 -29q215 140 461 287q112 70 138 98zM1321.5 989
q-4.5 0 -4.5 4t56 49t265 213q6 4 16 4t11 -13q0 -13 -6 -17q-121 -92 -227 -166t-110.5 -74z" />
    <glyph glyph-name="Acircumflex" unicode="&#xc2;" horiz-adv-x="1261" 
d="M1272 819q0 8 -5 8q-26 0 -227 -126t-348 -224q213 -14 414 -14q166 327 166 356zM1258 864q26 28 42 29q16 0 45 -4l113 8q10 0 10 -10q0 -4 -31.5 -12.5t-43.5 -30.5q-219 -375 -355 -692q-23 -53 -22 -84q0 -66 68 -66t169 66q5 4 13 4t8 -5t-10 -12
q-151 -94 -257 -95t-106 79q0 45 52 135t145 272h-39q-248 0 -443 -20q-188 -127 -309 -219t-203 -193q-33 -39 -38 -60t-11 -22q-10 0 -10 15l8 80q-2 23 78 84q188 143 451 319q-17 13 -17 45q0 33 6 33q30 -24 88 -29q215 140 461 287q112 70 138 98zM1464 958
q-4 0 -4 15l-6 184q0 12 -6 12t-47 -37t-92 -94t-59 -57t-7.5 10t19.5 27q70 74 217 201q6 4 12 4t6 -11l10 -198q0 -25 -8 -31q-31 -25 -35 -25z" />
    <glyph glyph-name="Atilde" unicode="&#xc3;" horiz-adv-x="1261" 
d="M1272 819q0 8 -5 8q-26 0 -227 -126t-348 -224q213 -14 414 -14q166 327 166 356zM1258 864q26 28 42 29q16 0 45 -4l113 8q10 0 10 -10q0 -4 -31.5 -12.5t-43.5 -30.5q-219 -375 -355 -692q-23 -53 -22 -84q0 -66 68 -66t169 66q5 4 13 4t8 -5t-10 -12
q-151 -94 -257 -95t-106 79q0 45 51 135t146 272h-39q-248 0 -443 -20q-188 -127 -309 -219t-203 -193q-33 -39 -38 -60t-11 -22q-10 0 -10 15l8 80q-2 23 78 84q188 143 451 319q-17 13 -17 45q0 33 6 33q30 -24 88 -29q215 140 461 287q112 70 138 98zM1473 973
q-33 0 -63 24.5t-64 56.5t-56 31.5t-38 -12.5t-53.5 -52t-42.5 -40t-5 7t6 16q96 123 160 122q29 0 55.5 -26.5t75.5 -71.5q26 -18 56 -18t57 34q8 10 15 40t13 30q21 0 -16 -80q-45 -61 -100 -61z" />
    <glyph glyph-name="Adieresis" unicode="&#xc4;" horiz-adv-x="1261" 
d="M1272 819q0 8 -5 8q-26 0 -227 -126t-348 -224q213 -14 414 -14q166 327 166 356zM1258 864q26 28 42 29q16 0 45 -4l113 8q10 0 10 -10q0 -4 -31.5 -12.5t-43.5 -30.5q-219 -375 -355 -692q-23 -53 -22 -84q0 -66 68 -66t169 66q5 4 13 4t8 -5t-10 -12
q-151 -94 -257 -95t-106 79q0 45 52 135t145 272h-39q-248 0 -443 -20q-188 -127 -309 -219t-203 -193q-33 -39 -38 -60t-11 -22q-10 0 -10 15l8 80q-2 23 78 84q188 143 451 319q-17 13 -17 45q0 33 6 33q30 -24 88 -29q215 140 461 287q112 70 138 98zM1360 1118.5
q0 -24.5 -22.5 -49.5t-47 -25t-24.5 26t20.5 49.5t47 23.5t26.5 -24.5zM1569 1110q0 -25 -22.5 -49.5t-47 -24.5t-24.5 26t20.5 49.5t47 23.5t26.5 -25z" />
    <glyph glyph-name="Aring" unicode="&#xc5;" horiz-adv-x="1261" 
d="M1272 819q0 8 -5 8q-26 0 -227 -126t-348 -224q213 -14 414 -14q166 327 166 356zM1487 1102q0 53 -55 53q-35 0 -60.5 -26.5t-25.5 -61.5q0 -51 55 -51q33 0 59.5 26.5t26.5 59.5zM1258 864q26 28 42 29q16 0 45 -4l113 8q10 0 10 -10q0 -4 -31.5 -12.5t-43.5 -30.5
q-219 -375 -355 -692q-23 -53 -22 -84q0 -66 68 -66t169 66q5 4 13 4t8 -5t-10 -12q-151 -94 -257 -95t-106 79q0 45 52 135t145 272h-39q-248 0 -443 -20q-188 -127 -309 -219t-203 -193q-33 -39 -38 -60t-11 -22q-10 0 -10 15l8 80q-2 23 78 84q188 143 451 319
q-17 13 -17 45q0 33 6 33q30 -24 88 -29q215 140 461 287q112 70 138 98zM1516 1108q0 -47 -37 -84t-84 -37q-78 0 -78 76q0 47 37 84t84 37q78 0 78 -76z" />
    <glyph glyph-name="AE" unicode="&#xc6;" horiz-adv-x="1675" 
d="M1284 834q0 6 -9 6t-222 -132q-214 -132 -363 -229q102 -6 332 -6h74q66 115 127 235t61 126zM1753 893h35q14 0 14 -7t-13 -33t-16.5 -29t-7.5 -3t-12 20.5t-299 20.5q-33 0 -49 -20q-66 -86 -225 -369q240 2 310 6t126 27h7q7 0 7 -3t-8 -20.5t-10 -26.5t-19 -10h-2
q-248 5 -426 3q-159 -284 -159 -355q0 -96 143 -96q172 0 328 44t229 91q6 4 11 4t5 -5.5t-18 -19.5t-31.5 -40.5t-58.5 -36.5q-271 -60 -532 -60q-61 0 -131 13.5t-70 70.5q0 31 14 59t186 328q-336 -4 -458 -12q-185 -125 -311 -220t-208 -196q-33 -39 -38 -60t-13 -21
t-8 14l8 72v8q-2 23 78 84q176 135 455 321q-18 10 -21 60v2q0 12 4 12t17 -11t69 -18q201 131 299.5 191.5t270.5 169.5q6 4 6 10t-12 6q-262 0 -295 -23l-11 -8q-13 0 -2 29t29 29h25l362 -4l311 10q68 2 115 2z" />
    <glyph glyph-name="Ccedilla" unicode="&#xc7;" horiz-adv-x="1042" 
d="M1097.5 350q6.5 0 6.5 -28v-3q0 -23 -17 -47q-180 -265 -514 -303q-72 -23 -71 -55q0 -16 32 -30t31 -38q0 -22 -26 -45q-80 -68 -152 -102q-8 -4 -14 -4q-16 0 -17 12l68 31q39 16 59 34q21 18 21 32q0 13 -13.5 22.5t-37.5 26.5q-16 12 -17 24q0 39 105 88
q-29 -2 -52 -2q-307 0 -307 244q0 167 135 364q86 127 201 215q162 125 359 127h10q166 2 287 -71q18 -10 18 -28t-16 -44q-16 -27 -38 -78t-30 -51t-8 8.5t6 20.5t6 39q0 100 -90 153q-57 33 -150 33h-10q-108 0 -214 -84q-192 -153 -308 -403q-66 -141 -66 -256
q0 -170 220 -170q129 0 235 47q190 84 358 315q4 6 10.5 6z" />
    <glyph glyph-name="Egrave" unicode="&#xc8;" horiz-adv-x="987" 
d="M1096 897q12 0 12 -12t-2 -15q-31 -45 -35 -45t-12 20.5t-297 20.5q-33 0 -49 -20q-88 -117 -215 -346q-10 -16 15.5 -18.5t121.5 -2.5t162 4q67 3 97 15t37 12t7 -6q-8 -14 -18 -41q-2 -12 -21 -12q-184 4 -265 4t-147 -2q-16 0 -22 -13q-152 -257 -153 -347
q-1 -91 154 -91q154 0 314 43t234 92q6 4 11 4t5 -5.5t-18 -19.5t-31.5 -40.5t-58.5 -36.5q-262 -59 -484 -59q-109 0 -179.5 13t-70.5 70q0 35 14 61t99 174q84 148 84 154q-1 6 -23 7q-22 0 -22 11t35 14t59 48q168 304 168 318t-12 14q-189 0 -219 -21l-11 -7q-6 0 -6 7
t11 38q4 12 20 12q150 -8 254 -8l307 10q68 2 115 2h35zM846 1241q12 0 94 -240v-4q0 -6 -2 -6q-4 2 -58 101t-55 114q-1 16 7 26t14 9z" />
    <glyph glyph-name="Eacute" unicode="&#xc9;" horiz-adv-x="987" 
d="M1096 897q12 0 12 -12t-2 -15q-31 -45 -35 -45t-12 20.5t-297 20.5q-33 0 -49 -20q-88 -117 -215 -346q-10 -16 15.5 -18.5t121.5 -2.5t162 4q67 3 97 15t37 12t7 -6q-8 -14 -18 -41q-2 -12 -21 -12q-184 4 -265 4t-147 -2q-16 0 -22 -13q-152 -257 -153 -347
q-1 -91 154 -91q154 0 314 43t234 92q6 4 11 4t5 -5.5t-18 -19.5t-31.5 -40.5t-58.5 -36.5q-262 -59 -484 -59q-109 0 -179.5 13t-70.5 70q0 35 14 61t99 174q84 148 84 154q-1 6 -23 7q-22 0 -22 11t35 14t59 48q168 304 168 318t-12 14q-189 0 -219 -21l-11 -7q-6 0 -6 7
t11 38q4 12 20 12q150 -8 254 -8l307 10q68 2 115 2h35zM1174 1243q0 -6 -7 -10q-121 -92 -227 -166t-110 -74t-5 2q2 6 6 11q106 86 316 254q6 4 10 4q17 -1 17 -21z" />
    <glyph glyph-name="Ecircumflex" unicode="&#xca;" horiz-adv-x="987" 
d="M1096 897q12 0 12 -12t-2 -15q-31 -45 -35 -45t-12 20.5t-297 20.5q-33 0 -49 -20q-88 -117 -215 -346q-10 -16 15.5 -18.5t121.5 -2.5t162 4q67 3 97 15t37 12t7 -6q-8 -14 -18 -41q-2 -12 -21 -12q-184 4 -265 4t-147 -2q-16 0 -22 -13q-152 -257 -153 -347
q-1 -91 154 -91q154 0 314 43t234 92q6 4 11 4t5 -5.5t-18 -19.5t-31.5 -40.5t-58.5 -36.5q-262 -59 -484 -59q-109 0 -179.5 13t-70.5 70q0 35 14 61t99 174q84 148 84 154q-1 6 -23 7q-22 0 -22 11t35 14t59 48q168 304 168 318t-12 14q-189 0 -219 -21l-11 -7q-6 0 -6 7
t11 38q4 12 20 12q150 -8 254 -8l307 10q68 2 115 2h35zM982 1171q-22 0 -169 -163q-23 -25 -28 -25t-5 12.5t40 46.5t126 121q86 86 86 54l10 -199q0 -25 -8 -31l-33 -26q-6 0 -6 16l-6 184q0 10 -7 10z" />
    <glyph glyph-name="Edieresis" unicode="&#xcb;" horiz-adv-x="987" 
d="M1096 897q12 0 12 -12t-2 -15q-31 -45 -35 -45t-12 20.5t-297 20.5q-33 0 -49 -20q-88 -117 -215 -346q-10 -16 15.5 -18.5t121.5 -2.5t162 4q67 3 97 15t37 12t7 -6q-8 -14 -18 -41q-2 -12 -21 -12q-184 4 -265 4t-147 -2q-16 0 -22 -13q-152 -257 -153 -347
q-1 -91 154 -91q154 0 314 43t234 92q6 4 11 4t5 -5.5t-18 -19.5t-31.5 -40.5t-58.5 -36.5q-262 -59 -484 -59q-109 0 -179.5 13t-70.5 70q0 35 14 61t99 174q84 148 84 154q-1 6 -23 7q-22 0 -22 11t35 14t59 48q168 304 168 318t-12 14q-189 0 -219 -21l-11 -7q-6 0 -6 7
t11 38q4 12 20 12q150 -8 254 -8l307 10q68 2 115 2h35zM838 1118.5q0 -24.5 -22.5 -49.5t-47.5 -25t-25 26t20.5 49.5t47.5 23.5t27 -24.5zM1047 1110q0 -25 -23 -49.5t-47.5 -24.5t-24.5 26t20.5 49.5t47.5 23.5t27 -25z" />
    <glyph glyph-name="Igrave" unicode="&#xcc;" horiz-adv-x="446" 
d="M722 895q15 0 15 -9t-12 -14q-23 -6 -55 -80t-150 -314q-120 -241 -250 -455q-27 -43 -71 -52q-98 -6 -99 0q0 7 17 11t37 30q135 188 281 480t147 337q0 25 -37 27h-23q-60 0 -88 -4t-28 7t18 13q49 2 166 12t132 11zM582 1243q12 0 94 -239v-5q0 -6 -2 -6q-4 2 -58 101
t-55 114q0 16 7 26t14 9z" />
    <glyph glyph-name="Iacute" unicode="&#xcd;" horiz-adv-x="446" 
d="M722 895q15 0 15 -9t-12 -14q-23 -6 -55 -80t-150 -314q-120 -241 -250 -455q-27 -43 -71 -52q-98 -6 -99 0q0 7 17 11t37 30q135 188 281 480t147 337q0 25 -37 27h-23q-60 0 -88 -4t-28 7t18 13q49 2 166 12t132 11zM995 1239q0 -8 -6 -12q-121 -92 -227 -166
t-110.5 -74t-4.5 4t322 262q6 4 10 4q16 0 16 -18z" />
    <glyph glyph-name="Icircumflex" unicode="&#xce;" horiz-adv-x="446" 
d="M722 895q15 0 15 -9t-12 -14q-23 -6 -55 -80t-150 -314q-120 -241 -250 -455q-27 -43 -71 -52q-98 -6 -99 0q0 7 17 11t37 30q135 188 281 480t147 337q0 25 -37 27h-23q-60 0 -88 -4t-28 7t18 13q49 2 166 12t132 11zM804 1231q11 0 11 -10l10 -199q0 -25 -8 -31
q-31 -25 -35 -25t-4 15l-6 184q0 10 -8 11q-20 0 -168 -164q-23 -25 -27 -25q-6 4 -7 13t40 45t116 111t86 75z" />
    <glyph glyph-name="Idieresis" unicode="&#xcf;" horiz-adv-x="446" 
d="M722 895q15 0 15 -9t-12 -14q-23 -6 -55 -80t-150 -314q-120 -241 -250 -455q-27 -43 -71 -52q-98 -6 -99 0q0 7 17 11t37 30q135 188 281 480t147 337q0 25 -37 27h-23q-60 0 -88 -4t-28 7t18 13q49 2 166 12t132 11zM629 1118.5q0 -24.5 -22.5 -49.5t-47 -25t-24.5 26
t20 49.5t47 23.5t27 -24.5zM838 1110q0 -25 -22.5 -49.5t-47.5 -24.5t-25 26t20.5 49.5t47.5 23.5t27 -25z" />
    <glyph glyph-name="Eth" unicode="&#xd0;" horiz-adv-x="1091" 
d="M632 446q-28 0 -145 -4q-180 -322 -180 -340t12 -30q68 -72 214 -72q145 0 281 66t233.5 229.5t97.5 327.5q0 123 -96.5 187t-257.5 64q-47 0 -64 -24q-111 -176 -225 -379q61 4 116 4h44q18 -2 18 -19t-8 -18q-12 8 -40 8zM1243 600q0 -156 -114.5 -320t-262.5 -230
t-319 -66q-170 0 -266 51q-19 10 -37 10t-57.5 -22.5t-46.5 -22.5t-7 5t37.5 56.5t67.5 103.5t157 275l-110 -8q-33 0 -33 35q0 4 3 4t11.5 -4t145.5 0q213 372 213 391q0 10 -17 10q-84 -12 -254 -26q-37 -2 -37 32q0 27 11 27q22 -22 86 -22l393 14q219 0 327 -68
q108 -69 109 -225z" />
    <glyph glyph-name="Ntilde" unicode="&#xd1;" horiz-adv-x="1144" 
d="M342 889q0 10 12 10h6q42 -12 86 -12t93 10t65.5 10t18.5 -18q11 -146 111 -365t188 -338q30 -43 53 -2q258 504 424 754q84 127 151 127q41 0 58 -29q6 -10 6 -14t-6 -4h-19q-96 0 -205 -154q-188 -268 -366 -665q-33 -74 -92 -209q-6 -14 -13 -15q-10 0 -18 15
q-197 338 -332 721q-10 27 -22 26q-10 0 -27 -24q-281 -434 -410 -750q-43 -106 -43 -190q0 -12 -4 -13q-8 2 -23.5 42t-15.5 68q0 61 251 481t251 472q0 43 -49 43l-104 -6q-25 0 -25 29zM1225 1108q8 0 8 -22t-27 -56q-47 -63 -89 -63t-71.5 25.5t-74.5 68.5
q-20 18 -45 18q-24 0 -40 -12t-53.5 -51t-42.5 -39t-6 6q0 4 9 14q96 123 159 123q27 0 52 -24q59 -59 82.5 -75.5t53.5 -16.5t51 28t21 52t13 24z" />
    <glyph glyph-name="Ograve" unicode="&#xd2;" horiz-adv-x="1171" 
d="M586 -35q240 -1 429 229t189 473t-278 242q-213 0 -367 -172q-92 -104 -169 -258t-77 -274q0 -240 273 -240zM602 -53q-391 0 -391 280q0 129 84 287t186 252q174 160 443 160q158 0 260 -58q129 -72 127 -217q-4 -270 -219 -487t-490 -217zM979 1038q0 -4 -4.5 -4
t-58.5 99t-54 114t7 25t13 10t9 -8q88 -232 88 -236z" />
    <glyph glyph-name="Oacute" unicode="&#xd3;" horiz-adv-x="1171" 
d="M586 -35q240 -1 429 229t189 473t-278 242q-213 0 -367 -172q-92 -104 -169 -258t-77 -274q0 -240 273 -240zM602 -53q-391 0 -391 280q0 129 84 287t186 252q174 160 443 160q158 0 260 -58q129 -72 127 -217q-4 -270 -219 -487t-490 -217zM1313 1284q0 -6 -6 -10
q-121 -92 -227 -166t-110.5 -74t-5 5t163.5 135t166 131q19 -1 19 -21z" />
    <glyph glyph-name="Ocircumflex" unicode="&#xd4;" horiz-adv-x="1171" 
d="M586 -35q240 -1 429 229t189 473t-278 242q-213 0 -367 -172q-92 -104 -169 -258t-77 -274q0 -240 273 -240zM602 -53q-391 0 -391 280q0 129 84 287t186 252q174 160 443 160q158 0 260 -58q129 -72 127 -217q-4 -270 -219 -487t-490 -217zM1081 1220q-19 2 -170 -165
q-20 -23 -24 -23q-10 0 -10 10t18 27q63 55 139 130t86 75t10 -10l11 -199q0 -25 -8 -31q-31 -24 -35 -24t-4 105q0 104 -13 105z" />
    <glyph glyph-name="Otilde" unicode="&#xd5;" horiz-adv-x="1171" 
d="M586 -35q240 -1 429 229t189 473t-278 242q-213 0 -367 -172q-92 -104 -169 -258t-77 -274q0 -240 273 -240zM602 -53q-391 0 -391 280q0 129 84 287t186 252q174 160 443 160q158 0 260 -58q129 -72 127 -217q-4 -270 -219 -487t-490 -217zM1086 1012q-44 0 -73.5 24.5
t-74.5 67.5q-23 20 -45.5 20t-38.5 -12t-53 -52t-42 -40t-5 7t6 15q96 123 160 123q29 0 53 -24q59 -59 82.5 -75.5t52.5 -16.5t55 34q7 10 15 40t15 30t7 -10v-4q-4 -23 -24 -66q-46 -61 -90 -61z" />
    <glyph glyph-name="Odieresis" unicode="&#xd6;" horiz-adv-x="1171" 
d="M586 -35q240 -1 429 229t189 473t-278 242q-213 0 -367 -172q-92 -104 -169 -258t-77 -274q0 -240 273 -240zM602 -53q-391 0 -391 280q0 129 84 287t186 252q174 160 443 160q158 0 260 -58q129 -72 127 -217q-4 -270 -219 -487t-490 -217zM922 1159.5
q0 -24.5 -22.5 -49.5t-47.5 -25t-25 26t20.5 49.5t47.5 23.5t27 -24.5zM1130 1151q0 -25 -22.5 -49.5t-47 -24.5t-24.5 26t20.5 49.5t47 23.5t26.5 -25z" />
    <glyph glyph-name="multiply" unicode="&#xd7;" horiz-adv-x="819" 
d="M512 285l-238 239l45 45l240 -241l240 241l45 -45l-240 -239l240 -240l-45 -45l-240 242l-240 -242l-45 45z" />
    <glyph glyph-name="Oslash" unicode="&#xd8;" horiz-adv-x="1171" 
d="M1190 664v4q0 74 -23 123q-526 -477 -811 -756q63 -68 203 -70h12q269 0 463 273q156 213 156 426zM913 909h-4q-318 0 -528 -417q-82 -164 -82 -283v-4q0 -86 39 -146l815 756q-61 94 -240 94zM197 223q0 133 83 285t189 258q164 160 440 160h4q178 0 279 -72l94 88
q14 14 28 14t15 -9q0 -9 -16 -23l-96 -88q82 -72 81 -179v-12q-14 -205 -164 -411t-370 -261q-66 -16 -201 -26q-181 12 -244 51l-94 -92q-18 -18 -30 -18q-13 0 -13 14t23 35l86 79q-94 74 -94 207z" />
    <glyph glyph-name="Ugrave" unicode="&#xd9;" horiz-adv-x="1261" 
d="M786 891q0 -8 -30 -13t-51 -30q-199 -248 -349 -510q-51 -90 -51 -168q0 -143 158 -143q159 -1 317 105t275 286l225 405q27 47 72 64q88 31 112 31t23 -11q1 -10 -17 -12t-34 -23q-172 -212 -292 -450t-120 -330t88 -92q56 0 174 55q12 2 12 -7t-8 -13
q-143 -66 -250 -66q-135 0 -135 105q0 78 82 205v4q0 4 -2 4t-4 -2q-96 -109 -199 -176q-197 -131 -374 -132q-88 0 -154 43q-66 44 -66 116t41 148t196.5 301.5t158.5 260.5q0 18 -31 18h-41q-32 -2 -70 -2t-43.5 4t-5.5 11q4 6 15 12l163 -6q49 0 107 4q33 6 98 12
q10 0 10 -8zM973 1241q12 0 94 -240v-4q0 -6 -2 -6q-5 2 -59 101t-54 114q0 16 8 26t13 9z" />
    <glyph glyph-name="Uacute" unicode="&#xda;" horiz-adv-x="1261" 
d="M786 891q0 -8 -30 -13t-51 -30q-199 -248 -349 -510q-51 -90 -51 -168q0 -143 158 -143q159 -1 317 105t275 286l225 405q27 47 72 64q88 31 112 31t23 -11q1 -10 -17 -12t-34 -23q-172 -212 -292 -450t-120 -330t88 -92q56 0 174 55q12 2 12 -7t-8 -13
q-143 -66 -250 -66q-135 0 -135 105q0 78 82 205v4q0 4 -2 4t-4 -2q-96 -109 -199 -176q-197 -131 -374 -132q-88 0 -154 43q-66 44 -66 116t41 148t196.5 301.5t158.5 260.5q0 18 -31 18h-41q-32 -2 -70 -2t-43.5 4t-5.5 11q4 6 15 12l163 -6q49 0 107 4q33 6 98 12
q10 0 10 -8zM1061.5 991q-4.5 0 -4.5 5t321 261q6 4 16 4t11 -13q0 -13 -6 -17q-121 -92 -227 -166t-110.5 -74z" />
    <glyph glyph-name="Ucircumflex" unicode="&#xdb;" horiz-adv-x="1261" 
d="M786 891q0 -8 -30 -13t-51 -30q-199 -248 -349 -510q-51 -90 -51 -168q0 -143 158 -143q159 -1 317 105t275 286l225 405q27 47 72 64q88 31 112 31t23 -11q1 -10 -17 -12t-34 -23q-172 -212 -292 -450t-120 -330t88 -92q56 0 174 55q12 2 12 -7t-8 -13
q-143 -66 -250 -66q-135 0 -135 105q0 78 82 205v4q0 4 -2 4t-4 -2q-96 -109 -199 -176q-197 -131 -374 -132q-88 0 -154 43q-66 44 -66 116t41 148t196.5 301.5t158.5 260.5q0 18 -31 18h-41q-32 -2 -70 -2t-43.5 4t-5.5 11q4 6 15 12l163 -6q49 0 107 4q33 6 98 12
q10 0 10 -8zM959 993q-7 -1 -7 11t40 46t114 110q74 75 86 75t12 -10l10 -199q0 -25 -8 -31q-30 -25 -34 -25t-5 15l-6 184q0 13 -6 13t-47 -37t-92 -95t-57 -57z" />
    <glyph glyph-name="Udieresis" unicode="&#xdc;" horiz-adv-x="1261" 
d="M786 891q0 -8 -30 -13t-51 -30q-199 -248 -349 -510q-51 -90 -51 -168q0 -143 158 -143q159 -1 317 105t275 286l225 405q27 47 72 64q88 31 112 31t23 -11q1 -10 -17 -12t-34 -23q-172 -212 -292 -450t-120 -330t88 -92q56 0 174 55q12 2 12 -7t-8 -13
q-143 -66 -250 -66q-135 0 -135 105q0 78 82 205v4q0 4 -2 4t-4 -2q-96 -109 -199 -176q-197 -131 -374 -132q-88 0 -154 43q-66 44 -66 116t41 148t196.5 301.5t158.5 260.5q0 18 -31 18h-41q-32 -2 -70 -2t-43.5 4t-5.5 11q4 6 15 12l163 -6q49 0 107 4q33 6 98 12
q10 0 10 -8zM997 1118.5q0 -24.5 -22.5 -49.5t-47 -25t-24.5 26t20.5 49.5t47 23.5t26.5 -24.5zM1206 1110q0 -25 -22.5 -49.5t-47 -24.5t-24.5 26t20.5 49.5t47 23.5t26.5 -25z" />
    <glyph glyph-name="Yacute" unicode="&#xdd;" horiz-adv-x="935" 
d="M526 2q-70 0 -96 -41q-2 -4 -12 -4t-10 12q0 -8 43 56q188 280 188 514q0 301 -248 301q-88 0 -151 -60q-23 -31 -58 -71q-4 -2 -9 -2t-5 6t4 12q115 174 297 174q127 0 191 -77t65 -186q0 -109 -14 -181q-2 -15 6 -15t218 198t337 304t196 107q27 0 56.5 -15.5
t29.5 -38.5q0 -6 -1 -6l-42 6q-63 0 -182 -71q-279 -170 -569 -500q-67 -75 -154 -311q-20 -57 -28 -95q-6 -24 -22 -20t-30 4zM1239 1196q0 -8 -6 -12q-121 -94 -227 -167t-110.5 -73t-4.5 4t56 49t265 213q6 4 9 4q18 0 18 -18z" />
    <glyph glyph-name="Thorn" unicode="&#xde;" horiz-adv-x="661" 
d="M328 865q0 11 14 12q51 0 143 9q91 9 117 10t26 -5t-24 -55l-78 -154q0 -4 6 -4h5q51 18 125 18t143 -32q94 -48 94 -148t-73 -172t-169 -104t-188 -31h-29q-63 4 -63 22q0 8 8 9q23 -12 59 -15h19q82 0 151 33q104 49 156 143q31 55 31 129q0 147 -156 148
q-59 0 -99 -20t-52 -42q-232 -442 -263 -534q-4 -12 -4 -27q0 -49 97 -49q16 -16 0 -16h-142q-76 6 -76 39q0 10 6 23.5t198 370.5t192 406q0 29 -41 29l-67 -2q-66 -2 -66 9z" />
    <glyph glyph-name="germandbls" unicode="&#xdf;" horiz-adv-x="706" 
d="M975 1074q0 42 -41 42q-36 0 -100 -60t-134 -179q-184 -315 -256 -462t-182 -341q70 -66 180 -66t184 54.5t74 148.5v8q0 84 -94 123t-94 96q0 39 47 90q313 334 391 463q25 41 25 83zM1065 1133q0 -47 -80 -148q-125 -143 -356 -416q-39 -47 -39 -84q0 -53 100 -106
q80 -43 80 -123q0 -141 -156 -225q-76 -41 -186 -41t-182 51q-226 -405 -379 -614q-268 -365 -510 -365h-2q-109 0 -174 74q-6 6 -6 12t4 6t50.5 -37t125.5 -24q49 4 141 24q115 39 197 129q123 132 231 318t271 524q-35 45 -35 96q0 16 20 68t80 131q8 12 16 12t9 -7
q0 -7 -9 -15q-78 -78 -77 -162q0 -41 18 -78l31 64q275 568 551 845q139 141 209 142q23 0 40 -13t17 -38z" />
    <glyph glyph-name="agrave" unicode="&#xe0;" horiz-adv-x="518" 
d="M154 66q0 -14 12 -15q8 0 22 10q88 66 193 240q23 39 68 117h-3q-61 -4 -108 -43q-123 -104 -180 -283q-4 -12 -4 -26zM406 12q16 0 30 6q154 63 287 265q6 8 11 8t5 -6t-4 -11q-59 -86 -155 -176q-123 -111 -199 -110q-78 0 -78 92q0 37 19 88q-127 -152 -197 -152
q-43 0 -43 47q0 20 10 52q66 188 225 276q81 43 142 43q31 51 84 51q-4 -8 -29 -53q53 -6 55 -14t-4 -8l-59 6q-22 -41 -82 -169q-110 -235 -18 -235zM342 772q12 0 94 -240v-4q0 -4 -3 -4t-57 98t-54 114t7 26t13 10z" />
    <glyph glyph-name="aacute" unicode="&#xe1;" horiz-adv-x="518" 
d="M154 66q0 -14 12 -15q8 0 22 10q88 66 193 240q23 39 68 117h-3q-61 -4 -108 -43q-123 -104 -180 -283q-4 -12 -4 -26zM406 12q16 0 30 6q154 63 287 265q6 8 11 8t5 -6t-4 -11q-59 -86 -155 -176q-123 -111 -199 -110q-78 0 -78 92q0 37 19 88q-127 -152 -197 -152
q-43 0 -43 47q0 20 10 52q66 188 225 276q81 43 142 43q31 51 84 51q-4 -8 -29 -53q53 -6 55 -14t-4 -8l-59 6q-22 -41 -82 -169q-110 -235 -18 -235zM737 827q0 -6 -6 -10q-121 -91 -227 -165t-110.5 -74t-4.5 4t322 262q6 4 10 4q16 -1 16 -21z" />
    <glyph glyph-name="acircumflex" unicode="&#xe2;" horiz-adv-x="518" 
d="M154 66q0 -14 12 -15q8 0 22 10q88 66 193 240q23 39 68 117h-3q-61 -4 -108 -43q-123 -104 -180 -283q-4 -12 -4 -26zM406 12q16 0 30 6q154 63 287 265q6 8 11 8t5 -6t-4 -11q-59 -86 -155 -176q-123 -111 -199 -110q-78 0 -78 92q0 37 19 88q-127 -152 -197 -152
q-43 0 -43 47q0 20 10 52q66 188 225 276q81 43 142 43q31 51 84 51q-4 -8 -29 -53q53 -6 55 -14t-4 -8l-59 6q-22 -41 -82 -169q-110 -235 -18 -235zM553 760q-6 0 -47 -37t-92 -95q-50 -58 -58 -57q-8 0 -8 10.5t41 46.5t115 110q74 75 86 75t12 -10l10 -199q0 -25 -8 -31
q-31 -25 -35 -25t-4 15l-6 185q0 12 -6 12z" />
    <glyph glyph-name="atilde" unicode="&#xe3;" horiz-adv-x="518" 
d="M154 66q0 -14 12 -15q8 0 22 10q88 66 193 240q23 39 68 117h-3q-61 -4 -108 -43q-123 -104 -180 -283q-4 -12 -4 -26zM406 12q16 0 30 6q154 63 287 265q6 8 11 8t5 -6t-4 -11q-59 -86 -155 -176q-123 -111 -199 -110q-78 0 -78 92q0 37 19 88q-127 -152 -197 -152
q-43 0 -43 47q0 20 10 52q66 188 225 276q81 43 142 43q31 51 84 51q-4 -8 -29 -53q53 -6 55 -14t-4 -8l-59 6q-22 -41 -82 -169q-110 -235 -18 -235zM300 612q-5 0 -5 7t6 16q96 123 160 123q29 0 53 -25q59 -59 83.5 -75.5t52.5 -16.5t55 35q8 10 15 40t14 30t7 -11v-4
q-4 -23 -24 -65q-45 -62 -89 -62t-74 24t-64 56t-56 32t-38 -12t-53.5 -52t-42.5 -40z" />
    <glyph glyph-name="adieresis" unicode="&#xe4;" horiz-adv-x="518" 
d="M154 66q0 -14 12 -15q8 0 22 10q88 66 193 240q23 39 68 117h-3q-61 -4 -108 -43q-123 -104 -180 -283q-4 -12 -4 -26zM406 12q16 0 30 6q154 63 287 265q6 8 11 8t5 -6t-4 -11q-59 -86 -155 -176q-123 -111 -199 -110q-78 0 -78 92q0 37 19 88q-127 -152 -197 -152
q-43 0 -43 47q0 20 10 52q66 188 225 276q81 43 142 43q31 51 84 51q-4 -8 -29 -53q53 -6 55 -14t-4 -8l-59 6q-22 -41 -82 -169q-110 -235 -18 -235zM505.5 752q26.5 0 26.5 -26t-22.5 -50.5t-47 -24.5t-24.5 26t20.5 50.5t47 24.5zM680 714q0 -26 -22.5 -50.5t-47 -24.5
t-24.5 26t20.5 50t47 24.5t26.5 -25.5z" />
    <glyph glyph-name="aring" unicode="&#xe5;" horiz-adv-x="518" 
d="M154 66q0 -14 12 -15q8 0 22 10q88 66 193 240q23 39 68 117h-3q-61 -4 -108 -43q-123 -104 -180 -283q-4 -12 -4 -26zM621 717q0 53 -54 53q-35 0 -60.5 -26.5t-25.5 -61.5q0 -51 56 -51q33 0 58.5 26.5t25.5 59.5zM406 12q16 0 30 6q154 63 287 265q6 8 11 8t5 -6
t-4 -11q-59 -86 -155 -176q-123 -111 -199 -110q-78 0 -78 92q0 37 19 88q-127 -152 -197 -152q-43 0 -43 47q0 20 10 52q66 188 225 276q81 43 142 43q31 51 84 51q-4 -8 -29 -53q53 -6 55 -14t-4 -8l-59 6q-22 -41 -82 -169q-110 -235 -18 -235zM651 723q0 -47 -36.5 -84
t-84.5 -37q-80 0 -79 76q0 45 37.5 82t84.5 37q78 0 78 -74z" />
    <glyph glyph-name="ae" unicode="&#xe6;" horiz-adv-x="638" 
d="M418 377q0 6 -8 20t-29 15q-45 0 -115 -105t-98 -201q-4 -14 -4 -18q0 -23 18 -22q12 0 29 16q123 127 199 272q8 17 8 23zM588 420q0 12 -20 12t-66 -33q-47 -33 -82 -145q-2 -6 -2 -15q0 -16 34 -3q34 14 75 58q42 44 59 112q2 8 2 14zM841.5 272q6.5 0 6.5 -5t-4 -11
q-37 -70 -114 -147q-78 -77 -146 -121t-130 -43t-102 29q-41 28 -41 92t23 129v6q-2 1 -28 -33q-121 -160 -189 -160q-33 0 -33 41q0 16 6 35q39 115 121 221q102 133 201 133q20 0 25 -5t9 -7q2 0 30 51t35 62t43 15t43 5q7 0 7 -5t-10 -11q-25 -12 -96 -123l-4 -4h2
q2 0 8 4q68 43 137 45h4q27 0 27 -23q0 -14 -4 -24q-53 -145 -187 -191q-35 -8 -75 -30q-12 -47 -13 -88q0 -128 92 -127q101 0 232 131q82 82 114 149q4 10 10.5 10z" />
    <glyph glyph-name="ccedilla" unicode="&#xe7;" horiz-adv-x="417" 
d="M642 291q5 0 5 -6t-4 -11q-184 -225 -344 -276q-55 -29 -55 -51q0 -15 32 -31t33 -38q0 -22 -26 -46q-80 -68 -152 -102q-8 -4 -14 -4q-16 0 -17 12l68 31q39 17 59 35q21 18 21 31q1 17 -43 42q-37 26 -4 58t67 53q-29 -6 -53 -6q-106 0 -106 98q0 39 16 80
q84 207 272 286q25 10 39 11q49 0 74 -56q4 -10 4 -17t-10 -15q-59 -43 -51 -43q-6 0 -7 8v4q2 10 3 16q0 54 -72 54t-139 -136q-45 -90 -45 -173t75 -83q25 0 54 11q143 49 311 258q4 6 9 6z" />
    <glyph glyph-name="egrave" unicode="&#xe8;" horiz-adv-x="419" 
d="M393 395q0 27 -24.5 27t-62.5 -35t-79 -106q166 36 166 114zM606 248q6 0 6 -5t-4 -10q-78 -98 -196 -177t-220 -79t-102 86q0 104 76 207t138 139q62 35 114 35t51 -36q0 -47 -115 -99q-59 -27 -135 -43q-47 -90 -47 -171t76 -81q25 0 55 9q158 41 293 219q4 6 10 6z
M340 772q12 0 94 -240v-4q0 -4 -3 -4t-56 96t-55 115q-2 17 6 27t14 10z" />
    <glyph glyph-name="eacute" unicode="&#xe9;" horiz-adv-x="419" 
d="M393 395q0 27 -24.5 27t-62.5 -35t-79 -106q166 36 166 114zM606 248q6 0 6 -5t-4 -10q-78 -98 -196 -177t-220 -79t-102 86q0 104 76 207t138 139q62 35 114 35t51 -36q0 -47 -115 -99q-59 -27 -135 -43q-47 -90 -47 -171t76 -81q25 0 55 9q158 41 293 219q4 6 10 6z
M651 825q0 -6 -6 -10q-121 -91 -227 -165t-110.5 -74.5t-4.5 4t322 262.5q6 4 10 4q16 -1 16 -21z" />
    <glyph glyph-name="ecircumflex" unicode="&#xea;" horiz-adv-x="419" 
d="M393 395q0 27 -24.5 27t-62.5 -35t-79 -106q166 36 166 114zM606 248q6 0 6 -5t-4 -10q-78 -98 -196 -177t-220 -79t-102 86q0 104 76 207t138 139q62 35 114 35t51 -36q0 -47 -115 -99q-59 -27 -135 -43q-47 -90 -47 -171t76 -81q25 0 55 9q158 41 293 219q4 6 10 6z
M498 760q-6 0 -48 -37t-92 -95t-58 -57q-8 0 -7 10.5t41 46.5t115 110q75 75 87 75t11 -10l10 -199q0 -25 -8 -31q-31 -25 -35 -25t-4 15l-6 185q0 12 -6 12z" />
    <glyph glyph-name="edieresis" unicode="&#xeb;" horiz-adv-x="419" 
d="M393 395q0 27 -24.5 27t-62.5 -35t-79 -106q166 36 166 114zM606 248q6 0 6 -5t-4 -10q-78 -98 -196 -177t-220 -79t-102 86q0 104 76 207t138 139q62 35 114 35t51 -36q0 -47 -115 -99q-59 -27 -135 -43q-47 -90 -47 -171t76 -81q25 0 55 9q158 41 293 219q4 6 10 6z
M430 752q27 0 27 -26t-22.5 -50.5t-48.5 -24.5t-26 26t21.5 50.5t48.5 24.5zM602 716q0 -28 -21.5 -52.5t-47.5 -24.5t-25 23q0 25 21.5 53t45.5 28q27 1 27 -27z" />
    <glyph glyph-name="igrave" unicode="&#xec;" horiz-adv-x="370" 
d="M580 270q0 -6 -5 -10q-101 -128 -207 -198t-190 -70t-84 69q0 33 41 124t127 214q27 39 62 39q14 0 14 -10t-6 -20q-111 -172 -148 -306q-6 -23 -6 -34q0 -48 45 -48t96 29q145 80 248 221q4 6 8.5 6t4.5 -6zM264 772q12 0 94 -240v-4q0 -4 -3 -4t-58 99t-55 124t22 25z
" />
    <glyph glyph-name="iacute" unicode="&#xed;" horiz-adv-x="370" 
d="M580 270q0 -6 -5 -10q-101 -128 -207 -198t-190 -70t-84 69q0 33 41 124t127 214q27 39 62 39q14 0 14 -10t-6 -20q-111 -172 -148 -306q-6 -23 -6 -34q0 -48 45 -48t96 29q145 80 248 221q4 6 8.5 6t4.5 -6zM643 805q0 -6 -6 -10q-121 -92 -227 -166t-110.5 -74t-4.5 4
t56 49t265 213q6 4 11 4q16 0 16 -20z" />
    <glyph glyph-name="icircumflex" unicode="&#xee;" horiz-adv-x="370" 
d="M580 270q0 -6 -5 -10q-101 -128 -207 -198t-190 -70t-84 69q0 33 41 124t127 214q27 39 62 39q14 0 14 -10t-6 -20q-111 -172 -148 -306q-6 -23 -6 -34q0 -48 45 -48t96 29q145 80 248 221q4 6 8.5 6t4.5 -6zM453 760q-5 0 -47 -37t-92 -95t-58 -57q-6 -1 -6 11t40 46
t114 110q74 75 86 75t12 -10l10 -199q0 -25 -8 -31q-31 -25 -35 -25t-4 15l-6 185q0 12 -6 12z" />
    <glyph glyph-name="idieresis" unicode="&#xef;" horiz-adv-x="370" 
d="M580 270q0 -6 -5 -10q-101 -128 -207 -198t-190 -70t-84 69q0 33 41 124t127 214q27 39 62 39q14 0 14 -10t-6 -20q-111 -172 -148 -306q-6 -23 -6 -34q0 -48 45 -48t96 29q145 80 248 221q4 6 8.5 6t4.5 -6zM350 752q28 0 27 -26q0 -26 -22.5 -50.5t-47 -24.5t-24.5 26
t19.5 50.5t47.5 24.5zM499.5 752q26.5 0 26.5 -26t-22.5 -50.5t-47 -24.5t-24.5 26t20.5 50.5t47 24.5z" />
    <glyph glyph-name="eth" unicode="&#xf0;" horiz-adv-x="342" 
d="M457 424v2q-1 6 -19 6t-64 -33t-71 -61q-68 -82 -104 -162q-70 -156 -4 -153q39 0 88 42t75 82q99 154 99 277zM566 905q22 0 26 -16v-6q0 -19 -10 -9h-7q-25 0 -165 -43q37 -76 94 -215q31 -86 31 -161q0 -127 -86.5 -255t-202.5 -180q-51 -23 -88 -22q-68 0 -68 65
q0 102 125 250q51 61 119 95t110 43q14 2 15 20q0 87 -25 155t-80 189l-149 -51q-31 0 -31 29q0 4 18.5 4t151.5 41q-74 158 -137 260q-8 12 -25.5 22t-17.5 16t9 3q9 -2 32 -2l41 4q10 0 18 -15q68 -123 135 -270q145 49 167 49z" />
    <glyph glyph-name="ntilde" unicode="&#xf1;" horiz-adv-x="542" 
d="M747.5 280q6.5 0 6.5 -5t-4 -11q-121 -168 -275 -256q-83 -49 -145 -49t-62 59q0 46 60 148t76 144q14 42 14 47t-4 5q-18 0 -94 -67t-101 -98q-41 -74 -133 -215q-8 -10 -12 -11q-6 0 -16 19t-11 34q-1 16 23 50t94 145q37 74 110 215q6 10 17 10q33 0 33 -28
q0 -6 -17 -35t-61 -129q125 115 256 197q6 4 14 4q23 0 23 -23q0 -10 -11 -24q-119 -176 -168 -314q-8 -23 -8 -39q0 -51 51 -51q27 0 58 16q162 84 278 258q2 4 8.5 4zM715 745q8 -1 8 -23t-27 -56q-45 -62 -88 -62t-72.5 24.5t-75.5 66.5t-95 1q-6 -4 -43 -44t-42 -40
t-5.5 6.5t8.5 16.5q96 123 159 123q27 0 52 -25q59 -59 82.5 -75.5t53.5 -16.5t51 29t21 52t13 23z" />
    <glyph glyph-name="ograve" unicode="&#xf2;" 
d="M426 397v19l-8 2h-2q-88 -2 -189 -174q-70 -121 -67 -205q0 -31 28 -31q59 0 135 115t111 203q-8 31 -8 71zM774 346q0 -39 -79 -85t-122 -46q-82 0 -122 70q-120 -234 -240 -291q-35 -16 -61 -17q-59 0 -60 80q-2 113 121 260q57 69 121 93t96 26q10 59 41 64q8 2 45 12
q10 0 10 -8t-9 -13t-15 -51t-6 -73q0 -137 106 -131q86 6 162 110q4 6 8 6t4 -6zM442 528q0 -4 -4 -4t-58 98t-54 114t7 26t12 10t9 -8q88 -232 88 -236z" />
    <glyph glyph-name="oacute" unicode="&#xf3;" 
d="M426 397v19l-8 2h-2q-88 -2 -189 -174q-70 -119 -67 -197q0 -39 28 -39q59 0 135 115t111 203q-8 31 -8 71zM524 504q0 -8 -9 -13t-15 -51t-6 -73q0 -131 94 -131t174 110q4 6 8 6t4 -6q0 -39 -79 -85t-122 -46q-82 0 -122 70q-158 -308 -301 -308q-59 0 -60 74v6
q-2 113 121 260q57 69 121 93t96 26q10 59 41 64q8 2 45 12q10 0 10 -8zM705 825q0 -6 -7 -10q-121 -91 -227 -165t-110.5 -74.5t-4.5 4t322 262.5q6 4 10 4q17 -1 17 -21z" />
    <glyph glyph-name="ocircumflex" unicode="&#xf4;" 
d="M426 397v19l-8 2h-2q-88 -2 -189 -174q-70 -121 -67 -205q0 -31 28 -31q59 0 135 115t111 203q-8 31 -8 71zM524 504q0 -8 -9 -13t-15 -51t-6 -73q0 -131 94 -131t174 110q4 6 8 6t4 -6q0 -39 -79 -85t-122 -46q-82 0 -122 70q-158 -308 -301 -308q-59 0 -60 80
q-2 113 121 260q57 69 121 93t96 26q10 59 41 64q8 2 45 12q10 0 10 -8zM580 760q-6 0 -48 -37t-92 -95t-58 -57q-8 0 -7 10.5t41 46.5t115 110q75 75 87 75t11 -10l10 -199q0 -25 -8 -31q-31 -25 -35 -25t-4 15l-6 185q0 12 -6 12z" />
    <glyph glyph-name="otilde" unicode="&#xf5;" 
d="M426 397v19q-8 2 -10 2q-88 -2 -189 -174q-70 -121 -67 -205q0 -31 28 -31q59 0 135 115t111 203q-8 31 -8 71zM524 504q0 -8 -9 -13t-15 -51t-6 -73q0 -131 94 -131t174 110q4 6 8 6t4 -6q0 -39 -79 -85t-122 -46q-82 0 -122 70q-158 -308 -301 -308q-59 0 -60 80
q-2 113 121 260q57 69 121 93t96 26q10 59 41 64q8 2 45 12q10 0 10 -8zM735 722q0 -22 -26 -56q-45 -62 -89 -62t-73 24.5t-75 66.5t-95 1q-6 -4 -43 -44t-42 -40t-5 6q0 35 114 119q61 42 112 -11q52 -52 75.5 -68.5t52.5 -16.5t55 35q8 10 16 40t13 29q10 -1 10 -23z" />
    <glyph glyph-name="odieresis" unicode="&#xf6;" 
d="M426 397v19l-8 2q-90 -2 -191 -174q-70 -119 -67 -197q0 -39 28 -39q59 0 135 115t111 203q-8 31 -8 71zM774 346q0 -39 -79 -85t-122 -46q-82 0 -122 70q-120 -234 -240 -291q-35 -16 -61 -17q-59 0 -60 80q-2 113 121 260q57 69 121 93t96 26q10 59 41 64q8 2 45 12
q10 0 10 -8t-9 -13t-15 -51t-6 -73q0 -131 94 -131t174 110q4 6 8 6t4 -6zM501.5 752q26.5 0 26.5 -26t-22.5 -50.5t-47 -24.5t-24.5 26t20.5 50.5t47 24.5zM676 714q0 -26 -22.5 -50.5t-47 -24.5t-24.5 26t20.5 50t47 24.5t26.5 -25.5z" />
    <glyph glyph-name="divide" unicode="&#xf7;" horiz-adv-x="819" 
d="M496 47.5q0 63.5 63.5 63.5t63.5 -63.5t-63.5 -63.5t-63.5 63.5zM496 522.5q0 63.5 63.5 63.5t63.5 -63.5t-63.5 -63.5t-63.5 63.5zM844 254h-570v61h570v-61z" />
    <glyph glyph-name="oslash" unicode="&#xf8;" 
d="M238 38q0 -30 26 -30q63 0 147 126t111 220q-172 -166 -282 -274q-2 -12 -2 -42zM526 383q0 35 -28 35h-4q-86 0 -187 -174q-43 -74 -59 -135q100 96 278 272v2zM90 -47q0 8 6 14l74 70q-2 16 -2 18q0 117 121 262q55 67 123 93t103 26q34 0 48 -18l62 61q6 6 14 6t8 -7
t-76 -79v-8q0 -20 -10 -45q-55 -131 -150.5 -251t-179.5 -120q-41 0 -55 39q-86 -99 -86 -61z" />
    <glyph glyph-name="ugrave" unicode="&#xf9;" 
d="M746 260q6 0 6 -6t-4 -10q-137 -190 -263 -262q-68 -39 -116 -39q-70 0 -70 75q0 41 20 93q-27 -37 -69 -73t-84 -36q-53 0 -53 59q0 25 12 60q51 143 156 303q13 18 39 18t26 -26q0 -10 -34 -66t-134 -248q-8 -20 -8 -47t24.5 -26.5t57.5 32.5q72 72 142 210t85 140
q14 1 25.5 -20.5t11.5 -42.5t-34 -65t-62 -80q-68 -100 -68 -195q0 -45 37 -45q25 0 79 27t134 105.5t135 158.5q3 6 9 6zM426 528q0 -4 -4 -4t-58 99t-55 114q0 15 7 25q6 10 12 10t10 -8q88 -232 88 -236z" />
    <glyph glyph-name="uacute" unicode="&#xfa;" 
d="M746 260q6 0 6 -6t-4 -10q-137 -190 -263 -262q-68 -39 -116 -39q-70 0 -70 75q0 41 20 93q-27 -37 -69 -73t-84 -36q-53 0 -53 59q0 25 12 60q51 143 156 303q13 18 39 18t26 -26q0 -10 -34 -66t-134 -248q-8 -20 -8 -47t24.5 -26.5t57.5 32.5q72 72 142 210t85 140
q14 1 25.5 -20.5t11.5 -42.5t-34 -65t-62 -80q-68 -100 -68 -195q0 -45 37 -45q25 0 79 27t134 105.5t135 158.5q3 6 9 6zM776 805q0 -6 -6 -10q-122 -92 -228 -166t-110 -74t-4 4t322 262q6 4 10 4q16 0 16 -20z" />
    <glyph glyph-name="ucircumflex" unicode="&#xfb;" 
d="M746 260q6 0 6 -6t-4 -10q-137 -190 -263 -262q-68 -39 -116 -39q-70 0 -70 75q0 41 20 93q-27 -37 -69 -73t-84 -36q-53 0 -53 59q0 25 12 60q51 143 156 303q13 18 39 18t26 -26q0 -10 -34 -66t-134 -248q-8 -20 -8 -47t24.5 -26.5t57.5 32.5q72 72 142 210t85 140
q14 1 25.5 -20.5t11.5 -42.5t-34 -65t-62 -80q-68 -100 -68 -195q0 -45 37 -45q25 0 79 27t134 105.5t135 158.5q3 6 9 6zM555 760q-6 0 -47 -37t-92 -95q-50 -58 -58 -57q-8 0 -8 10.5t41 46.5t115 110q74 75 86 75t12 -10l10 -199q0 -25 -8 -31q-31 -25 -35 -25t-4 15
l-6 185q0 12 -6 12z" />
    <glyph glyph-name="udieresis" unicode="&#xfc;" 
d="M746 260q6 0 6 -6t-4 -10q-137 -190 -263 -262q-68 -39 -116 -39q-70 0 -70 75q0 41 20 93q-27 -37 -69 -73t-84 -36q-53 0 -53 59q0 25 12 60q51 143 156 303q13 18 39 18t26 -26q0 -10 -34 -66t-134 -248q-8 -20 -8 -47t24.5 -26.5t57.5 32.5q72 72 142 210t85 140
q14 1 25.5 -20.5t11.5 -42.5t-34 -65t-62 -80q-68 -100 -68 -195q0 -45 37 -45q25 0 79 27t134 105.5t135 158.5q3 6 9 6zM499.5 752q26.5 0 26.5 -26t-22.5 -50.5t-47 -24.5t-24.5 26t20.5 50.5t47 24.5zM674 714q0 -26 -22.5 -50.5t-47 -24.5t-24.5 26t20.5 50t47 24.5
t26.5 -25.5z" />
    <glyph glyph-name="yacute" unicode="&#xfd;" horiz-adv-x="475" 
d="M168 80q0 -23 20 -23q8 1 43 15q55 23 95 97q130 240 157 271t32 31t5 -4q0 -3 10 -21t9 -26q0 -8 -27 -58q-26 -50 -98 -136q-72 -85 -206 -304q-134 -218 -309 -450q-277 -364 -491 -365q-193 0 -199 145q-3 32 3 56t10 24t4 -6q4 -78 84 -119q114 -60 266 9
q152 70 315 280q131 168 217.5 308t130.5 210t44 72h-2q2 0 -46.5 -27.5t-82.5 -27.5q-57 0 -58 47q0 59 105 207q4 4 53 82q14 23 29 22l38 8q9 0 9 -5q0 -6 -18 -32q-142 -216 -142 -280zM768 805q0 -6 -6 -10q-122 -92 -228 -166t-110 -74t-4 4t56 49t265 213q6 4 11 4
q16 0 16 -20z" />
    <glyph glyph-name="thorn" unicode="&#xfe;" horiz-adv-x="497" 
d="M489 373q0 12 -10 12q-4 0 -12 -4q-125 -68 -209 -168q-10 -12 -76 -117q-6 -12 -6 -27t18.5 -33t38.5 -18q43 0 103 70t106 152q47 82 47 133zM-246 -690q0 -18 8.5 -28.5t8.5 -14.5t-7 -4q-27 0 -63 55q-12 18 -12 41t14 49q84 152 381 596q29 45 27 74v8q0 18 26 25
q12 4 45 57q274 455 275 549q0 47 -43 47q-35 0 -76 -31q-2 -2 -8 -3t-6 4t6 9q88 61 164 62q57 0 57 -51q0 -57 -131 -266t-123 -209q-8 0 98.5 77.5t148.5 77.5t40 -31q-4 -55 -64.5 -156.5t-115 -151.5t-123 -81.5t-109.5 -31.5l-37 6q-10 0 -16 -8q-166 -262 -320 -564
q-45 -88 -45 -106z" />
    <glyph glyph-name="ydieresis" unicode="&#xff;" horiz-adv-x="475" 
d="M539 422q0 -10 -27 -60q-26 -50 -98 -136q-72 -85 -206 -304q-134 -218 -309 -450q-277 -364 -491 -365q-193 0 -199 145v15q0 66 13 65q4 0 4 -6q4 -78 84 -119q114 -60 266 9q152 70 315 280q131 168 217.5 308t130.5 210t44 72h-2l-52 -28q-51 -28 -77 -27
q-57 0 -58 47q0 59 105 207q4 4 53 82q14 23 26.5 22.5t23.5 3.5t18 4q14 -1 -10 -37q-142 -216 -142 -280q0 -23 20 -23q8 1 43 15q55 23 95 97q164 302 188 302q4 0 6.5 -8.5t10.5 -19.5t8 -21zM440.5 752q26.5 0 26.5 -26t-22.5 -50.5t-47 -24.5t-24.5 26t20.5 50.5
t47 24.5zM614 714q0 -26 -22.5 -50.5t-47 -24.5t-24.5 26t20.5 50t47 24.5t26.5 -25.5z" />
    <glyph glyph-name="dotlessi" unicode="&#x131;" horiz-adv-x="370" 
d="M575.5 276q4.5 0 4.5 -7t-2 -9q-98 -125 -232 -213q-84 -55 -168 -55t-84 69q0 33 41 124t127 214q27 39 62 39q14 0 14 -10t-6 -20q-111 -172 -148 -306q-6 -23 -6 -34q0 -48 45 -48t96 29q145 80 248 221q4 6 8.5 6z" />
    <glyph glyph-name="Lslash" unicode="&#x141;" horiz-adv-x="907" 
d="M652 498q18 0 20 -16.5t-2 -16.5t-9 2t-145 -35l-98 -188q-45 -86 -82 -124t-81 -62t-44 -31q4 -4 10 -7q143 10 309 22t268 13q102 0 101 -39q-2 -45 -11 -61t-15.5 -16.5t-6.5 17.5t-16 24q-152 58 -429.5 24.5t-359.5 -33.5q-23 0 -22 17q0 26 98 26q67 7 160 174
q37 66 109 209l-121 -41q-14 0 -22.5 12.5t-8.5 16.5q2 4 6 4h4q30 0 158 39q74 154 211 418q10 16 31 24q100 37 213 37q20 0 20 -14t-16 -14l-60 6q-47 0 -97 -74t-192 -346q102 33 120 33z" />
    <glyph glyph-name="lslash" unicode="&#x142;" horiz-adv-x="419" 
d="M965 1264q0 33 -25 32q-20 0 -45 -24q-94 -94 -252 -344q-88 -135 -260 -406q33 18 68 43q293 211 448 506q66 123 66 193zM485 428l-23 2q-12 0 -157 -47q-35 -61 -90 -166q-43 -93 -43 -153t59 -60q53 0 140 47q131 72 241 221q6 8 12 8t5 -4q0 -4 -6 -12
q-129 -156 -241 -223t-194 -68q-98 0 -98 93q0 55 41 131q33 53 98 159l-127 -37q-8 0 -19 9.5t-11 17.5q0 2 56 15t120 34q121 213 377 629q86 127 166 195q160 135 231 135q37 0 37 -37q0 -68 -90 -215q-215 -352 -514 -555q-31 -18 -88 -51q-16 -27 -50 -78
q131 43 154 43q18 0 18 -25q0 -8 -4 -8z" />
    <glyph glyph-name="OE" unicode="&#x152;" horiz-adv-x="1673" 
d="M1130 637q0 256 -252 256q-92 0 -167 -39q-111 -57 -219 -204t-143 -261q-36 -114 -36 -180q0 -184 199 -211q29 -4 55 -4q133 0 256 80q190 123 275 370q32 97 32 193zM870 909q336 1 336 -247q0 -30 -2 -56q82 170 129 246q20 35 66 35l387 10h35q14 0 14 -7t-15 -36
t-22 -29q-6 0 -12 20.5t-299 20.5q-39 0 -53 -20q-88 -126 -150 -238t-61 -120q-1 -8 117 -9q118 0 186 4t125 27h7q7 0 7 -3t-8 -20.5t-10 -26.5t-19 -9h-2q-184 4 -265 4t-147 -2q-16 0 -22 -13q-74 -125 -112 -216t-40 -126q0 -96 154 -96t314 43t233 92q6 4 11 4
t5.5 -5.5t-17.5 -19.5t-32 -40.5t-59 -36.5q-265 -59 -527 -59q-56 0 -124 13t-68 64q0 41 35 99q-193 -186 -422 -187q-53 0 -135 19t-139.5 87t-57.5 178t86 258t188 247q158 152 385 151z" />
    <glyph glyph-name="oe" unicode="&#x153;" horiz-adv-x="649" 
d="M424 432q-63 0 -131 -78q-100 -117 -139 -235q-10 -33 -11 -56q0 -45 35 -45q29 0 72 33q72 53 144.5 168t72.5 164t-43 49zM657 412v8q-2 10 -18 10h-4q-49 -8 -94 -69t-55 -87t-13 -30q0 -6 8 -6t15 2q84 31 137 110q24 37 24 62zM458 -10q-98 0 -98 98q0 8 2 18v9
l-4 -4q-133 -119 -213 -119q-74 0 -73 76q0 121 149 270q111 111 211 111h10q55 -4 60 -70q0 -10 4 -10q4 -1 22 17t69.5 45.5t88.5 27.5t37 -35q0 -76 -129 -154q-47 -29 -117 -53q-18 -6 -32 -42q-15 -35 -15 -99t64 -64q20 0 47 8q168 51 290 222q3 6 11 6t8 -5t-4 -10
q-70 -87 -180 -165t-208 -78z" />
    <glyph glyph-name="Scaron" unicode="&#x160;" horiz-adv-x="686" 
d="M696 885q-72 0 -126 -51.5t-54 -123.5t39 -147q39 -53 115 -164q37 -57 37 -129t-70 -150q-143 -161 -373 -161q-111 0 -188 37q-27 12 -27 40t19 91q8 57 26 57q6 0 6 -10v-4q-6 -12 -6 -31q0 -80 70 -125q50 -32 150 -32t196 66t96 179q0 69 -52 135t-71 97
q-49 76 -49 143q0 110 95 220t249 110q82 0 125 -49q12 -15 12 -29t-10 -36.5t-18 -51.5q-7 -29 -17 -29t-10 8l6 31q0 55 -49 82t-121 27zM1038 1235q10 0 9 -13q0 -13 -134 -132q-102 -96 -111 -96t-9 12q-6 68 -15 200q0 18 10 27q29 23 36 23t7 -13q0 -196 8.5 -196
t53.5 39t90 94t55 55z" />
    <glyph glyph-name="scaron" unicode="&#x161;" horiz-adv-x="385" 
d="M162 -39q68 1 106 59t47 138q2 16 11 170q4 59 74 113t100 54.5t30 -22.5q0 -35 -30 -35l-41 8q-43 0 -53 -49q-4 -21 -12 -169t-87 -218q-80 -70 -168 -69q-45 -1 -94 29t-49 62t45 68q4 4 9 4t5 -4l-8 -30q0 -18 23 -64q24 -46 92 -45zM712 805q8 0 7 -13
q0 -13 -14 -26q-63 -54 -138 -128t-87 -74t-13 9q-6 68 -16 203q0 14 17 31.5t30 17.5q8 0 8 -14q0 -196 8 -196.5t14 6.5q84 72 130 128t54 56z" />
    <glyph glyph-name="Ydieresis" unicode="&#x178;" horiz-adv-x="935" 
d="M526 2q-70 0 -96 -41q-2 -4 -12 -4t-10 12q0 -8 43 56q188 280 188 514q0 301 -248 301q-88 0 -151 -60q-23 -31 -58 -71q-4 -2 -9 -2t-5 6t4 12q115 174 297 174q127 0 191 -77t65 -186q0 -109 -14 -181q-2 -15 6 -15t218 198t337 304t196 107q27 0 56.5 -15.5
t29.5 -38.5q0 -6 -1 -6l-42 6q-63 0 -182 -71q-279 -170 -569 -500q-67 -75 -154 -311q-20 -57 -28 -95q-6 -24 -22 -20t-30 4zM870 1089.5q0 -24.5 -22.5 -49t-47 -24.5t-24.5 26t20.5 49t47 23t26.5 -24.5zM1079 1081.5q0 -24.5 -22.5 -49t-47 -24.5t-24.5 26t20.5 49
t47 23t26.5 -24.5z" />
    <glyph glyph-name="Zcaron" unicode="&#x17d;" horiz-adv-x="946" 
d="M1106 -190q-116 0 -264 26q-178 39 -523 109q-147 27 -262 37q-14 2 -14 11t14 9q53 0 95 35q174 145 444 387t403 399q16 18 17 29q0 16 -41 16q-508 0 -588 -77q-8 -8 -14 -8.5t-1 22.5t24 43t40 22q125 10 350 15l422 8q18 0 18.5 -10.5t-19.5 -13.5t-364 -320
q-345 -318 -540 -524q-10 -9 -10 -21t18 -18q258 -80 607 -133q53 -8 108 -9q135 0 223 62q111 78 142 221q2 12 9 12t7 -7v-9q-29 -133 -107 -223t-194 -90zM1120 1212q0 -12 -40 -46t-115 -109q-76 -76 -87 -76t-12 12q-6 68 -14 201q0 18 10 27q31 25 37 24t6 -67t2 -104
q3 -38 9 -40q6 0 12 6q84 72 130 128t54 56t8 -12z" />
    <glyph glyph-name="zcaron" unicode="&#x17e;" horiz-adv-x="532" 
d="M383 334q53 0 99 32t74 55q26 23 35 23t9 -11t-34 -35t-120 -99q-87 -76 -288 -217q-10 -8 -10.5 -12t10.5 -11q402 -244 512 -290t184 -45q186 0 291 204q4 6 9 6t5 -14t-29 -59q-104 -160 -334 -160t-577 229q-55 37 -99 71t-49 34t-16 -6l-69 -43q-14 0 -14 11t8 15
q195 92 458 305q4 3 4 9t-6 4q-94 -27 -123 -27q-88 0 -84 64q2 31 27 63.5t40 35.5t15 -9l-10 -49q0 -74 82 -74zM708 805q8 0 7 -13q0 -13 -15 -26q-64 -54 -138 -128t-86 -74t-13 9q-8 68 -17 203q0 14 22 32t26 17q8 0 8 -14q0 -196 8 -196.5t14 6.5q84 72 130 128
t54 56z" />
    <glyph glyph-name="florin" unicode="&#x192;" horiz-adv-x="423" 
d="M188 430l45 -6h27q18 2 55 4q142 290 287 451q92 100 195 100q57 0 57 -31q0 -6 -14 -28t-19 -21q-7 0 -25 9t-71 10q-84 0 -137 -82q-41 -60 -95 -180t-104 -224l232 23q10 0 10 -5t-10 -8q-183 -36 -248 -45q-143 -293 -251 -455q-186 -278 -366 -278q-49 0 -84 22
t-34 52v6q3 21 45 49q8 8 13 8q5 1 12 -23q22 -73 106 -73h10q50 2 108 40t134 175t231 469q-47 -6 -129 -16h-4q-18 0 -18 8t12 17t17 20.5t13 11.5z" />
    <glyph glyph-name="circumflex" unicode="&#x2c6;" horiz-adv-x="471" 
d="M309 760q-6 0 -47 -37t-92 -95t-58 -57q-7 0 -7.5 10.5t40.5 46.5t115 110q74 75 86 75t12 -10l11 -199q0 -25 -9 -31q-30 -25 -34 -25t-4 15l-7 185q0 12 -6 12z" />
    <glyph glyph-name="caron" unicode="&#x2c7;" horiz-adv-x="471" 
d="M386 805q8 0 9 -12q0 -12 -16 -27q-63 -54 -138 -128t-87 -74t-13 9q-6 72 -14 197v6q0 16 10 25q31 25 37 24t6 -67t2 -104t8 -40q6 0 13 7q83 72 129 128t54 56z" />
    <glyph glyph-name="breve" unicode="&#x2d8;" horiz-adv-x="471" 
d="M379 707q0 -6 -17 -27q-68 -86 -153 -86q-100 0 -100 102q0 18 24 27q6 2 13 2t8 -12v-4q0 -86 79 -86q70 0 113 71q14 25 24 25t9 -12z" />
    <glyph glyph-name="dotaccent" unicode="&#x2d9;" horiz-adv-x="471" 
d="M279 684q0 -23 -20.5 -42t-46.5 -19t-30 26v10q0 57 58 58q39 0 39 -33z" />
    <glyph glyph-name="ring" unicode="&#x2da;" horiz-adv-x="565" 
d="M313 717q0 53 -53 53q-35 0 -60.5 -26.5t-25.5 -61.5q0 -51 55 -51q33 0 58.5 26.5t25.5 59.5zM344 723q0 -47 -37 -84t-84 -37q-80 0 -80 76q0 45 38 82t85 37q78 0 78 -74z" />
    <glyph glyph-name="ogonek" unicode="&#x2db;" horiz-adv-x="471" 
d="M135 -145q0 35 41 71q72 66 166 99h4q6 -1 6 -5q-2 -4 -8 -6q-63 -23 -103 -62.5t-40 -71.5t21.5 -49t36.5 -17t32 4h4q4 0 4 -4q-6 -19 -68 -19h-8q-88 -2 -88 60z" />
    <glyph glyph-name="tilde" unicode="&#x2dc;" horiz-adv-x="471" 
d="M455 745q8 -1 8 -23t-27 -56q-45 -62 -88 -62t-72.5 24.5t-74.5 65.5t-97 2q-6 -4 -42 -44t-42 -40t-6 6.5t9 16.5q96 123 159 123q26 0 68 -42t66 -58.5t54 -16.5t51 29t21 52t13 23z" />
    <glyph glyph-name="hungarumlaut" unicode="&#x2dd;" horiz-adv-x="471" 
d="M266 762q0 -20 -14 -35q-147 -156 -158 -156l-2 2q0 13 150 203q4 6 10 6q14 0 14 -20zM391 760q0 -20 -12 -33q-113 -120 -158 -154q-2 -1 -2 1t70 103t86 101q16 2 16 -18z" />
    <glyph glyph-name="Delta" unicode="&#x394;" horiz-adv-x="1253" 
d="M594 1059l-447 -959h844zM668 1409l577 -1409h-1233z" />
    <glyph glyph-name="Delta" unicode="&#x2206;" horiz-adv-x="1253" 
d="M594 1059l-447 -959h844zM668 1409l577 -1409h-1233z" />
    <glyph glyph-name="Omega" unicode="&#x3a9;" horiz-adv-x="1572" 
d="M70 0v332h30q18 -76 45 -100.5t91 -24.5h323l-4 57q-238 72 -341 222.5t-103 315.5q0 339 303 517q154 90 375 90t374 -90q76 -45 107 -70q74 -61 136 -171t60 -276q0 -165 -103 -315.5t-341 -222.5l-4 -57h323q63 0 90 24.5t46 100.5h30v-332h-604l33 311q90 39 115 60
q76 55 126 171.5t50 280.5q0 272 -142 414q-106 106 -296.5 106t-296.5 -106q-141 -141 -142 -414q0 -164 50.5 -280.5t125.5 -171.5q25 -21 115 -60l33 -311h-604z" />
    <glyph glyph-name="Omega" unicode="&#x2126;" horiz-adv-x="1572" 
d="M70 0v332h30q18 -76 45 -100.5t91 -24.5h323l-4 57q-238 72 -341 222.5t-103 315.5q0 339 303 517q154 90 375 90t374 -90q76 -45 107 -70q74 -61 136 -171t60 -276q0 -165 -103 -315.5t-341 -222.5l-4 -57h323q63 0 90 24.5t46 100.5h30v-332h-604l33 311q90 39 115 60
q76 55 126 171.5t50 280.5q0 272 -142 414q-106 106 -296.5 106t-296.5 -106q-141 -141 -142 -414q0 -164 50.5 -280.5t125.5 -171.5q25 -21 115 -60l33 -311h-604z" />
    <glyph glyph-name="pi" unicode="&#x3c0;" horiz-adv-x="1124" 
d="M227 -39q-37 0 -73.5 29.5t-36.5 73.5q0 45 40 97t70 87q37 51 43 104l60 469h-97q-90 0 -135 -65l-43 -64h-35q14 40 34 92t59 107q76 106 192 106h764v-176h-258q-25 -240 -25 -481q0 -102 44 -144t85 -40q40 0 73.5 25.5t41.5 61.5t12 66h43q-2 -125 -48 -205
q-79 -137 -197 -137q-43 0 -74 23q-66 48 -102 158t-13 344l35 329h-231q-41 -471 -95 -719q-31 -141 -133 -141z" />
    <glyph glyph-name="endash" unicode="&#x2013;" horiz-adv-x="1024" 
d="M1139 260h-1024v31h1024v-31z" />
    <glyph glyph-name="emdash" unicode="&#x2014;" horiz-adv-x="2048" 
d="M1868 262l-154 2l-1220 -4h-93q-20 0 -20 15t25 16l637 -2q420 0 831 4q22 -8 22 -14q0 -16 -26 -17h-2z" />
    <glyph glyph-name="quoteleft" unicode="&#x2018;" horiz-adv-x="430" 
d="M598 940q8 0 8 -6t-4 -10q-94 -84 -145 -183q-29 -55 -29 -119t33 -90q6 -4 6 -14t-21.5 -35.5t-30.5 -25.5t-14 6q-31 39 -31 107t62 170q61 101 154 196q4 4 12 4z" />
    <glyph glyph-name="quoteright" unicode="&#x2019;" horiz-adv-x="430" 
d="M555 826q0 -68 -61.5 -169.5t-153.5 -195.5q-4 -4 -12 -4t-8 6t4 10q172 154 172 299q0 70 -31 92q-8 6 -8 16q1 10 25 36q24 24 31 24t11 -6q31 -40 31 -108z" />
    <glyph glyph-name="quotesinglbase" unicode="&#x201a;" horiz-adv-x="391" 
d="M346 172q0 -68 -61.5 -169t-153.5 -196q-4 -4 -12 -4q-8 1 -8 7t4 10q172 154 172 299q0 70 -31 92q-8 6 -8 16t24 35t32 25q7 0 11 -6q31 -41 31 -109z" />
    <glyph glyph-name="quotedblleft" unicode="&#x201c;" horiz-adv-x="528" 
d="M524 919q8 0 8 -6t-4 -10q-174 -155 -174 -303q0 -63 33 -88q6 -4 6 -14.5t-21.5 -36t-30.5 -25.5t-13 6q-31 39 -31 108t61 170t154 195q4 4 12 4zM694 919q8 0 8 -6t-4 -10q-176 -157 -176 -260.5t35 -130.5q6 -4 6 -14.5t-21.5 -36t-30.5 -25.5t-13 6q-31 39 -31 108
t61 170t154 195q4 4 12 4z" />
    <glyph glyph-name="quotedblright" unicode="&#x201d;" horiz-adv-x="528" 
d="M516 826q0 -68 -61.5 -169.5t-153.5 -195.5q-4 -4 -12 -4t-8 6t4 10q102 97 138 167t36 134t-33 90q-8 6 -8 16t24 36q24 24 32 24q7 0 11 -6q31 -40 31 -108zM686 826q0 -68 -61.5 -169.5t-153.5 -195.5q-4 -4 -12 -4t-8 6t4 10q174 159 174 301q0 66 -33 90q-8 6 -8 16
t24 36q24 24 32 24q7 0 11 -6q31 -40 31 -108z" />
    <glyph glyph-name="quotedblbase" unicode="&#x201e;" horiz-adv-x="528" 
d="M309 172q0 -72 -60.5 -171t-152.5 -194q-4 -4 -12 -4q-8 1 -8 7t4 10q90 82 132 162t42 142t-33 87q-8 6 -8 16q1 10 25 35t31 25t12 -6q28 -37 28 -109zM479 172q0 -72 -60.5 -171t-152.5 -194q-4 -4 -12 -4q-8 1 -8 7t4 10q90 82 132 162t42 142t-33 87q-8 6 -8 16
q1 10 25 35t31 25t12 -6q28 -37 28 -109z" />
    <glyph glyph-name="dagger" unicode="&#x2020;" horiz-adv-x="542" 
d="M680 471l-191 41q-158 -283 -256 -526q-16 -43 -36 -52q-41 -18 -49 -18t-18 26t-11 37q0 12 16 37q109 152 326 498h-25q-76 0 -122 -16t-73 -15q-28 0 -28 27q0 12 13.5 31.5t22.5 22.5t22 3t66 -14t118 -14h20q59 109 90 179t86 185q10 18 29 19q35 0 35 -39
q0 -16 -8 -31q-61 -88 -201 -313l174 12q39 0 39 -25q0 -15 -10.5 -35t-28.5 -20z" />
    <glyph glyph-name="daggerdbl" unicode="&#x2021;" horiz-adv-x="542" 
d="M682 471l-190 41q-33 -53 -99 -164l205 17q41 0 41 -29q0 -16 -10.5 -35.5t-22.5 -19.5t-24 4q-106 35 -203 37q-39 -74 -143 -336q-16 -41 -39 -52q-41 -18 -45 -18q-14 0 -31 55v4q0 16 16 41q63 84 195 277l18 29q-69 -3 -119 -15t-83 -12t-33 20q0 10 28 47
q16 16 98 2q83 -14 126 -16q25 41 96 166h-25q-76 0 -122 -16t-74 -15q-29 0 -29 27q-1 18 19 38t37 19q17 0 70 -14t116 -14h22q43 77 81 163t95 201q10 18 27 19q37 0 37 -39q0 -16 -8 -31q-61 -92 -201 -313l174 12q39 0 39 -25q0 -15 -10.5 -35t-28.5 -20z" />
    <glyph glyph-name="bullet" unicode="&#x2022;" horiz-adv-x="1024" 
d="M492 708.5q0 147.5 103 251t250.5 103.5t251 -103.5t103.5 -251t-103.5 -251t-251 -103.5t-250.5 103.5t-103 251z" />
    <glyph glyph-name="ellipsis" unicode="&#x2026;" horiz-adv-x="1185" 
d="M311 90q0 -25 -31.5 -62.5t-63.5 -37.5t-34 30v7q-2 35 27 66.5t65 31.5t37 -35zM668 90q0 -29 -31 -64.5t-63 -35.5t-33 30v7q-2 35 26.5 66.5t64.5 31.5t36 -35zM1034 90q0 -29 -30.5 -64.5t-62.5 -35.5t-34 30v7q-2 35 26.5 66.5t64.5 31.5t36 -35z" />
    <glyph glyph-name="perthousand" unicode="&#x2030;" horiz-adv-x="1697" 
d="M1579 367q0 53 -43 53t-106 -70q-27 -29 -54 -78q-63 -115 -63 -209q0 -59 53 -59q28 0 66 30t71 81q76 115 76 252zM123 -188q0 16 14 28q592 547 824 860q104 142 104 192q0 92 -119 91q-48 1 -148 -25t-126 -26t-41 12q-45 -20 -92 -86q-82 -115 -95 -225v-17
q0 -66 50 -65q23 0 53 18q74 45 119 131t45 168v4q0 20 -9.5 34t-9.5 19t6 5h4q27 -10 51 -16t23 -60q0 -10 -4 -31q-20 -104 -111 -200t-191.5 -96.5t-100.5 85.5v17q16 123 120 239q49 55 134 84q-14 24 -4 52t16 28t8 -10q2 -20 43 -20.5t120 11t120 11.5q96 0 139 -53
q23 -27 22 -66q0 -66 -110 -215q-176 -240 -672 -751v-2q180 125 362.5 249.5t348.5 212.5q31 20 37 21q4 0 5 -9t-14 -17q-14 -8 -56 -55q-42 -48 -72 -125t-29 -128q0 -76 55 -76q39 0 86 49q106 109 107 263v18q-2 43 -31 65.5t-29 26.5t12.5 9t27.5 15t23 11q8 0 15 -6
q42 -33 142 -33q189 0 225 8t61 8h8q6 0 111 7h2q6 -1 6 -8t-38 -11t-38 -10q16 -30 17 -51v-11q-18 -162 -148 -294q-86 -88 -165 -88t-85 77v17q0 74 37 143q74 139 168 188q6 2 6 9q-2 4 -8 4h-2l-233 -13q-18 0 -19 -18l4 -41q0 -45 -22 -106q-43 -120 -124 -188
t-149 -68q-92 0 -92 98q0 125 141 268q-471 -295 -813 -573q-10 -8 -18 -8h-2q-6 2 -6 8l3 13q3 13 1 19v5z" />
    <glyph glyph-name="guilsinglleft" unicode="&#x2039;" horiz-adv-x="563" 
d="M252 201q0 10 9 15q9 6 172 136t170 130t7 -11v-4q-2 -6 -51 -41t-229 -178q-18 -14 -18 -41t40 -129q41 -102 43 -111q0 -4 -33 -10t-31 -8q-8 2 -20 47t-59 201v4zM331 -51h3h-3z" />
    <glyph glyph-name="guilsinglright" unicode="&#x203a;" horiz-adv-x="563" 
d="M547 230q0 -9 -8 -15q-158 -121 -293 -260q-16 -16 -32.5 -16t-16.5 8t12 18q129 98 260 219q14 12 14 20q1 8 -25 50q-26 40 -71 114t-45 80.5t16 9.5t23.5 6t17.5 3t19 -14q39 -72 125 -207q4 -7 4 -16z" />
    <glyph glyph-name="fraction" unicode="&#x2044;" horiz-adv-x="1107" 
d="M1415 1117q0 -13 -14 -27q-780 -811 -1305 -1409q-16 -18 -28 -19q-16 0 -16 20t20 42l1286 1384q25 27 41 27h4q12 -5 12 -18z" />
    <glyph glyph-name="Euro" unicode="&#x20ac;" horiz-adv-x="944" 
d="M702 420q92 0 140 -4q-8 -18 -25 -35q-86 18 -209 22q57 -2 -209 -2q-72 -158 -71 -251q0 -166 206 -166t369 139v-27q-147 -131 -389 -131q-276 0 -276 223q0 90 57 213h-98l8 25q45 -6 98 -6q16 29 53 90h-120l8 25q49 -6 125 -7q231 326 571 332q96 2 178 -34t99 -115
l-72 -88l-8 2q-4 219 -199 219q-246 0 -463 -316h266q92 0 140 -6q-8 -16 -25 -33q-111 21 -393 21q-10 -14 -53 -90h292z" />
    <glyph glyph-name="trademark" unicode="&#x2122;" horiz-adv-x="882" 
d="M657 854l-18 -23q-32 13 -123 -2q-4 -7 -16 -29t-75 -135t-101 -200q-16 -2 -52 -8q8 15 64 105t125 245l10 22q-116 -15 -168 -28l19 26q42 8 165 17l86 6zM1118 854l-24 -84q-39 -133 -64 -291q-20 -2 -43 -12l39 168q14 57 43 170q-2 -4 -76 -75t-202 -243
q-2 0 -37 -20q2 20 12 102l10 90l12 142q-8 -8 -59 -66l-67 -76q-12 -12 -66.5 -77.5t-85.5 -110.5q-6 -2 -19.5 -5t-19.5 -7l109 127l137 153q23 25 42 51t40 50q12 4 30 12l-6 -61q-17 -134 -24 -218l-4 -43q57 70 137 154l78 82q25 27 42 46t27 28q37 12 39 14z" />
    <glyph glyph-name="partialdiff" unicode="&#x2202;" horiz-adv-x="1011" 
d="M410 18q41 0 84 19q197 86 256 575q-70 76 -80 84q-61 49 -142 47q-117 -2 -196 -110q-102 -139 -102 -332t94 -254q45 -29 86 -29zM494 1430q-37 2 -86 2t-195 -66l-80 102q135 59 268 60q285 0 447 -287q98 -174 98 -436q0 -94 -26 -258q-26 -163 -78 -273
q-51 -110 -93 -168t-126 -103q-84 -46 -193 -46t-203 66q-156 105 -172 301t110 351t294 148q95 -2 151 -32t156 -107q18 102 22 250t-65 313q-25 59 -85 118t-144 65z" />
    <glyph glyph-name="product" unicode="&#x220f;" horiz-adv-x="1685" 
d="M1446 1288v-1282q0 -100 48 -133t151 -33v-47h-627v47q100 0 148 33t48 133v1419h-733v-1419q1 -100 49 -133t150 -33v-47h-629v47q103 0 151 33t48 133v1282q0 203 -195 203v47h1583v-47q-192 0 -192 -203z" />
    <glyph glyph-name="summation" unicode="&#x2211;" horiz-adv-x="1460" 
d="M922 1434h-539l559 -734l-602 -694h760q117 0 169 45t107 187h47q-41 -168 -55 -239t-33 -220q-145 23 -157 22h-1031q-20 0 -59 -3t-59 -3l714 815l-710 930q244 -14 213 -14h1018l12 -326h-41q-41 133 -74 166q-66 68 -239 68z" />
    <glyph glyph-name="radical" unicode="&#x221a;" horiz-adv-x="1124" 
d="M53 854l-33 68l299 147l404 -825l260 1634l72 -10l-307 -1946l-498 1028z" />
    <glyph glyph-name="infinity" unicode="&#x221e;" horiz-adv-x="1460" 
d="M1114 352q76 0 133.5 52t59.5 122t-48 132t-137 63q-39 1 -99 -21t-224 -159q104 -100 147 -132q42 -33 94 -45t74 -12zM340 721q-86 -1 -136 -63t-48 -133t59 -122t133 -51q23 0 74 12q50 12 94 44t148 133q-164 137 -224 159t-100 21zM342 827q63 0 125 -26
q100 -46 264 -193q165 148 245 184t144 35q111 0 195 -74.5t95 -188.5t-78 -217t-223 -91t-251 100q-63 57 -127 117q-63 -59 -127 -117q-117 -88 -251 -100t-223 91t-78 217t95 188.5t195 74.5z" />
    <glyph glyph-name="integral" unicode="&#x222b;" horiz-adv-x="561" 
d="M132 -219q-89 0 -122 90q-6 16 -6 33q0 51 55 80q18 10 44 10q27 0 57 -34t45 -34q29 0 42 70t11 156q-12 412 -12 643v295q0 242 7 372t40 242q51 172 164 172q51 0 95 -29.5t44 -85.5q0 -29 -26 -59t-68 -31q-43 0 -71 24.5t-44 24.5q-35 0 -37 -45q21 -199 39 -676
l-2 -442q-2 -362 -70 -600q-23 -78 -59 -125q-12 -14 -52 -32t-74 -19z" />
    <glyph glyph-name="approxequal" unicode="&#x2248;" horiz-adv-x="1124" 
d="M791 287q-39 0 -76 10l-307 88q-47 14 -109 14t-121 -51q-10 -10 -61 -72l-88 56q123 162 295 162q51 0 104 -15l309 -86q72 -20 150 13t117 92l75 -49q-96 -162 -288 -162zM791 596q-39 0 -76 10l-307 88q-47 14 -109 14t-121 -51q-10 -10 -61 -71l-88 55
q123 162 295 162q51 0 104 -15l309 -86q72 -20 150 13t117 92l75 -49q-96 -162 -288 -162z" />
    <glyph glyph-name="approxequal" unicode="&#x22f2;" horiz-adv-x="1124" 
d="M791 287q-39 0 -76 10l-307 88q-47 14 -109 14t-121 -51q-10 -10 -61 -72l-88 56q123 162 295 162q51 0 104 -15l309 -86q72 -20 150 13t117 92l75 -49q-96 -162 -288 -162zM791 596q-39 0 -76 10l-307 88q-47 14 -109 14t-121 -51q-10 -10 -61 -71l-88 55
q123 162 295 162q51 0 104 -15l309 -86q72 -20 150 13t117 92l75 -49q-96 -162 -288 -162z" />
    <glyph glyph-name="notequal" unicode="&#x2260;" horiz-adv-x="1124" 
d="M1106 788v-112h-399l-160 -285h559v-112h-621l-184 -330l-100 57l151 273h-321v112h385l157 285h-542v112h606l186 336l101 -57l-156 -279h338z" />
    <glyph glyph-name="lessequal" unicode="&#x2264;" horiz-adv-x="1124" 
d="M59 711v127l1018 471v-127l-887 -408l887 -407v-127zM59 0v113h1018v-113h-1018z" />
    <glyph glyph-name="greaterequal" unicode="&#x2265;" horiz-adv-x="1124" 
d="M1077 838v-127l-1018 -471v127l887 407l-887 408v127zM1077 113v-113h-1018v113h1018z" />
    <glyph glyph-name="lozenge" unicode="&#x25ca;" horiz-adv-x="1011" 
d="M831 772l-335 643l-336 -643l336 -661zM557 0h-123l-397 772l397 754h123l397 -754z" />
    <glyph glyph-name="fi" unicode="&#xf001;" horiz-adv-x="759" 
d="M997 991q0 -33 -33 -72l-34 -40q-6 0 -6 6t10 20.5t10 25.5t-8 19q-33 37 -93 37q-153 0 -333 -293q-80 -133 -158 -272h10q258 0 304 7t71 7h2q9 0 9 -5t-19 -31t-107 -164q-88 -137 -92 -209q0 -47 41 -47q16 0 29 4q203 70 369 286q4 6 9 6t5 -6t-4 -10
q-152 -190 -354 -287q-78 -37 -129 -37q-101 1 -11 173q5 10 91 145t86 143.5t-13 8.5q-162 0 -307 -3q-92 -176 -291 -528q-147 -248 -297 -419t-277 -171q-126 0 -184 127q-39 86 -38 182v19q4 51 100 164q4 4 8 4t4 -6l-16 -19q-29 -33 -33 -92v-29q0 -102 45 -198
q55 -119 145 -119q131 0 318 297q41 63 141.5 249.5t292.5 536.5l-143 -2q-51 0 -51 21q0 2 10 4l196 -2q244 424 496 577q78 47 154 47t75 -55zM895 714q0 -26 -22.5 -50.5t-47 -24.5t-24.5 26t20.5 50t47 24.5t26.5 -25.5z" />
    <glyph glyph-name="fl" unicode="&#xf002;" horiz-adv-x="813" 
d="M924 1067q-74 0 -154 -49q-113 -70 -201 -211q-37 -57 -204 -381q236 6 358 55q102 179 317 529q-4 2 -8 8q-34 49 -108 49zM1374 1303q-20 0 -57 -37t-125 -140q-104 -151 -239 -366q-135 -216 -152 -242q334 184 526 559q68 131 68 178q-1 48 -21 48zM969 1133
q70 0 69 -56q0 -23 15 -47q78 115 172 195q160 135 231 135q37 0 37 -37q0 -61 -90 -215q-250 -426 -619 -616q-56 -98 -124 -232t-68 -194q0 -62 55 -62t151 62t203 204q6 8 10.5 9t4.5 -5t-4 -12q-235 -295 -416 -295q-90 0 -90 88q0 57 32 119t171 285q-127 -45 -355 -56
q-14 -25 -72 -133t-231 -417q-162 -279 -301 -439q-199 -227 -422 -311q-96 -37 -196 -37t-179 47q-131 78 -131 256q0 67 12 107t17 41h2q2 -2 2 -6.5t-6 -28.5t-6 -78q0 -56 27 -106q78 -147 331 -148q304 0 551 301q72 88 148 230q2 3 130 257t242 463q-84 -2 -135 -2
t-78 21q2 4 11 4h217l22 43q125 238 256 385q170 193 314 258q49 23 90 23z" />
    <glyph glyph-name="uni20AC" horiz-adv-x="944" 
d="M702 420q92 0 140 -4q-8 -18 -25 -35q-86 18 -209 22q57 -2 -209 -2q-72 -158 -71 -251q0 -166 206 -166t369 139v-27q-147 -131 -389 -131q-276 0 -276 223q0 90 57 213h-98l8 25q45 -6 98 -6q16 29 53 90h-120l8 25q49 -6 125 -7q231 326 571 332q96 2 178 -34t99 -115
l-72 -88l-8 2q-4 219 -199 219q-246 0 -463 -316h266q92 0 140 -6q-8 -16 -25 -33q-111 21 -393 21q-10 -14 -53 -90h292z" />
    <glyph glyph-name=".null" horiz-adv-x="0" 
 />
    <glyph glyph-name="glyph249" horiz-adv-x="1005" 
 />
    <glyph glyph-name="glyph250" horiz-adv-x="518" 
 />
    <glyph glyph-name="glyph251" horiz-adv-x="518" 
 />
    <glyph glyph-name="glyph252" horiz-adv-x="518" 
 />
    <glyph glyph-name="glyph253" horiz-adv-x="518" 
 />
    <glyph glyph-name="glyph254" horiz-adv-x="446" 
 />
    <glyph glyph-name="glyph255" horiz-adv-x="419" 
 />
    <glyph glyph-name="glyph256" horiz-adv-x="419" 
 />
    <glyph glyph-name="glyph257" horiz-adv-x="419" 
 />
    <glyph glyph-name="glyph258" horiz-adv-x="370" 
 />
    <glyph glyph-name="glyph259" horiz-adv-x="370" 
 />
    <glyph glyph-name="glyph260" horiz-adv-x="370" 
 />
    <glyph glyph-name="glyph261" 
 />
    <glyph glyph-name="glyph262" 
 />
    <glyph glyph-name="glyph263" horiz-adv-x="538" 
 />
    <glyph glyph-name="glyph264" horiz-adv-x="538" 
 />
    </font>
</defs>
</svg>
